<svg width="256" height="181" fill="none" xmlns="http://www.w3.org/2000/svg"><mask id="a" maskUnits="userSpaceOnUse" x=".291" y=".069" width="256" height="181" fill="#000"><path fill="#fff" d="M.291.069h256v181h-256z"/><path d="M34.137 36.374c-2.3 0-4.282-.208-5.945-.623-1.635-.444-3.145-1.22-4.53-2.328-2.8-2.19-4.2-6.389-4.2-12.596 0-2.606.375-4.878 1.123-6.818.776-1.94 1.843-3.478 3.2-4.614 2.661-2.218 6.112-3.326 10.352-3.326 2.19 0 4.088.194 5.695.582 1.635.388 3.173 1.095 4.615 2.12 2.91 2.106 4.365 6.125 4.365 12.056 0 5.32-1.317 9.242-3.95 11.764-2.633 2.522-6.208 3.783-10.725 3.783Zm-1.372-7.109c.333.389.79.582 1.372.582.582 0 1.04-.194 1.372-.582.332-.415.61-1.274.831-2.577.222-1.33.333-3.173.333-5.529 0-2.355-.111-4.17-.333-5.446-.221-1.274-.499-2.106-.831-2.494-.333-.388-.79-.582-1.372-.582-.582 0-1.04.194-1.372.582-.332.388-.61 1.22-.831 2.494-.222 1.275-.333 3.09-.333 5.446s.111 4.199.333 5.53c.222 1.302.499 2.16.831 2.576ZM79.61 24.402c0 3.99-1.15 6.984-3.45 8.979-2.273 1.968-5.585 2.952-9.936 2.952-4.323 0-7.65-.984-9.977-2.952-2.328-1.995-3.492-4.989-3.492-8.98V9.146c0-.693.776-1.316 2.328-1.87 1.58-.555 3.409-.832 5.487-.832 1.663 0 2.744.319 3.243.956.36.499.54.929.54 1.289v12.388c0 3.132.111 5.21.333 6.236.25.997.762 1.496 1.538 1.496s1.26-.485 1.455-1.455c.222-.998.332-3.104.332-6.319V9.145c0-.693.776-1.316 2.329-1.87 1.58-.555 3.394-.832 5.445-.832 1.746 0 2.855.319 3.326.956.332.499.499.929.499 1.289v15.714ZM101.833 35.002c0 .305-.859.555-2.577.749-1.69.166-3.395.249-5.114.249-1.69 0-2.771-.07-3.242-.208-.444-.166-.665-.43-.665-.79V17.127h-5.779c-.305 0-.568-.388-.79-1.164-.221-.776-.332-1.926-.332-3.45 0-1.553.166-2.938.499-4.158.332-1.247.776-1.87 1.33-1.87h22.49c.416 0 .693.388.831 1.164.167.776.25 1.898.25 3.367s-.153 2.854-.457 4.157c-.305 1.303-.721 1.954-1.248 1.954h-5.196v17.875ZM125.752 36h-9.811c-1.358 0-2.273-.097-2.744-.291-.471-.194-.707-.513-.707-.956V8.522c0-.721.305-1.234.915-1.539.61-.332 1.663-.498 3.159-.498h9.354c5.321 0 8.993 1.053 11.016 3.159 2.023 2.079 3.035 5.875 3.035 11.39 0 5.515-1.053 9.396-3.16 11.64-2.106 2.217-5.792 3.326-11.057 3.326Zm-.333-23.321c-.665 0-1.109.055-1.33.166V29.64l1.579.166c.832 0 1.455-.665 1.871-1.995.444-1.33.665-3.631.665-6.901s-.221-5.46-.665-6.569c-.443-1.108-1.15-1.662-2.12-1.662ZM158.195 36.374c-2.3 0-4.281-.208-5.944-.623-1.635-.444-3.146-1.22-4.531-2.328-2.8-2.19-4.199-6.389-4.199-12.596 0-2.606.374-4.878 1.122-6.818.776-1.94 1.843-3.478 3.201-4.614 2.661-2.218 6.111-3.326 10.351-3.326 2.19 0 4.088.194 5.696.582 1.635.388 3.173 1.095 4.614 2.12 2.91 2.106 4.365 6.125 4.365 12.056 0 5.32-1.316 9.242-3.949 11.764-2.633 2.522-6.208 3.783-10.726 3.783Zm-1.371-7.109c.332.389.789.582 1.371.582s1.04-.194 1.372-.582c.333-.415.61-1.274.832-2.577.221-1.33.332-3.173.332-5.529 0-2.355-.111-4.17-.332-5.446-.222-1.274-.499-2.106-.832-2.494-.332-.388-.79-.582-1.372-.582-.582 0-1.039.194-1.371.582-.333.388-.61 1.22-.832 2.494-.222 1.275-.332 3.09-.332 5.446s.11 4.199.332 5.53c.222 1.302.499 2.16.832 2.576ZM190.864 36.374c-2.3 0-4.281-.208-5.944-.623-1.635-.444-3.146-1.22-4.532-2.328-2.799-2.19-4.198-6.389-4.198-12.596 0-2.606.374-4.878 1.122-6.818.776-1.94 1.843-3.478 3.201-4.614 2.661-2.218 6.111-3.326 10.351-3.326 2.19 0 4.088.194 5.696.582 1.635.388 3.173 1.095 4.614 2.12 2.91 2.106 4.365 6.125 4.365 12.056 0 5.32-1.317 9.242-3.949 11.764-2.633 2.522-6.208 3.783-10.726 3.783Zm-1.371-7.109c.332.389.789.582 1.371.582s1.04-.194 1.372-.582c.333-.415.61-1.274.832-2.577.221-1.33.332-3.173.332-5.529 0-2.355-.111-4.17-.332-5.446-.222-1.274-.499-2.106-.832-2.494-.332-.388-.79-.582-1.372-.582-.582 0-1.039.194-1.371.582-.333.388-.61 1.22-.832 2.494-.222 1.275-.332 3.09-.332 5.446s.11 4.199.332 5.53c.222 1.302.499 2.16.832 2.576ZM221.122 34.794c0 .36-.845.652-2.536.873-1.69.222-3.395.333-5.113.333-1.69 0-2.785-.097-3.284-.291-.471-.194-.707-.499-.707-.915V8.064c0-.72.901-1.233 2.702-1.538 1.83-.305 4.13-.457 6.901-.457 2.772 0 4.559.014 5.363.041.831 0 1.801.042 2.91.125 1.108.083 1.981.222 2.619.416a25.43 25.43 0 0 1 2.161.748c.804.305 1.428.707 1.871 1.206.444.47.873 1.039 1.289 1.704.748 1.192 1.122 2.896 1.122 5.113 0 2.19-.374 4.047-1.122 5.57-.721 1.497-1.691 2.634-2.91 3.41 3.187 5.016 4.781 8.203 4.781 9.561 0 1.358-2.73 2.037-8.19 2.037-1.58 0-2.674-.07-3.284-.208-.61-.138-.998-.443-1.164-.914l-2.702-8.564-.707-.042v8.522Zm0-14.923h1.081c1.607 0 2.411-1.248 2.411-3.742 0-1.275-.222-2.176-.665-2.702-.416-.527-.901-.79-1.455-.79h-1.372v7.233ZM41.925 132.296c0 1.277-2.768 2.214-8.302 2.81-5.45.596-10.643.894-15.582.894-4.938 0-8.131-.298-9.579-.894-1.447-.596-2.17-1.533-2.17-2.81V51.323c0-2.214 1.106-3.789 3.32-4.726 2.214-.936 6.386-1.404 12.516-1.404h47.384c1.788 0 2.682 3.235 2.682 9.706 0 6.386-.426 11.282-1.277 14.688-.767 3.32-1.788 4.98-3.066 4.98l-25.926-1.276v8.684c11.324-.51 18.902-.766 22.733-.766 1.278 0 2.129.681 2.555 2.043.51 1.363.766 4.002.766 7.919 0 3.831-.426 7.535-1.277 11.111-.852 3.491-2.044 5.237-3.576 5.237l-21.201-.766v25.543ZM159.8 100.367c0 12.261-3.533 21.456-10.6 27.587-6.982 6.045-17.157 9.068-30.525 9.068-13.283 0-23.5-3.023-30.652-9.068-7.152-6.131-10.728-15.326-10.728-27.587V53.494c0-2.128 2.383-4.044 7.152-5.747 4.853-1.703 10.473-2.554 16.858-2.554 5.109 0 8.43.979 9.962 2.937 1.107 1.533 1.661 2.852 1.661 3.96v38.06c0 9.62.34 16.007 1.022 19.157.766 3.065 2.341 4.598 4.725 4.598 2.384 0 3.874-1.49 4.47-4.47.681-3.066 1.022-9.537 1.022-19.413V53.494c0-2.128 2.384-4.044 7.152-5.747 4.853-1.703 10.43-2.554 16.731-2.554 5.364 0 8.77.979 10.218 2.937 1.021 1.533 1.532 2.852 1.532 3.96v48.277ZM201.767 132.296c0 1.107-2.64 2.001-7.919 2.682A119.739 119.739 0 0 1 178.266 136c-5.193 0-8.514-.298-9.962-.894-1.447-.596-2.171-1.533-2.171-2.81V53.877c0-2.128 2.427-4.087 7.28-5.875 4.939-1.788 10.516-2.682 16.731-2.682 2.214 0 3.874.085 4.981.256 2.895.425 4.939 2.256 6.131 5.492l12.261 32.95h.511v-30.14c0-2.13 2.426-4.088 7.279-5.876 4.854-1.788 10.388-2.682 16.604-2.682 5.364 0 8.77 1.022 10.217 3.066 1.022 1.447 1.533 2.767 1.533 3.959v79.951c0 1.107-2.64 2.001-7.919 2.682-5.194.681-10.941 1.022-17.242 1.022-6.215 0-9.621-.809-10.217-2.427l-11.878-31.418h-.638v30.141ZM31.47 172.794c0 .361-.86.652-2.577.873-1.69.222-3.381.333-5.072.333-1.69 0-2.771-.097-3.243-.291-.47-.194-.706-.499-.706-.915V147.27c0-.693.79-1.33 2.37-1.912 1.607-.582 3.422-.873 5.445-.873.72 0 1.261.027 1.621.083.943.138 1.608.734 1.996 1.787l3.99 10.726h.167v-9.811c0-.693.79-1.33 2.37-1.912 1.58-.582 3.38-.873 5.404-.873 1.746 0 2.854.332 3.325.997.333.471.5.901.5 1.289v26.023c0 .361-.86.652-2.578.873-1.69.222-3.562.333-5.612.333-2.023 0-3.132-.263-3.326-.79l-3.866-10.226h-.208v9.81ZM72.308 174H54.682c-1.358 0-2.272-.097-2.744-.291-.47-.194-.706-.499-.706-.915V146.48c0-.721.319-1.233.956-1.538.665-.305 1.843-.457 3.533-.457h16.712c.582 0 .873.97.873 2.91 0 1.912-.125 3.381-.374 4.406-.25.998-.582 1.497-.998 1.497-1.801 0-4.836-.18-9.104-.541v2.785c4.102-.166 6.776-.249 8.023-.249.749 0 1.123.873 1.123 2.619 0 1.746-.153 3.076-.458 3.991-.277.887-.665 1.33-1.164 1.33l-7.524-.166v2.66c4.822-.36 8.148-.54 9.977-.54.582 0 .873.97.873 2.91 0 1.94-.125 3.409-.374 4.406-.25.998-.582 1.497-.998 1.497ZM95.104 173.002c0 .305-.86.555-2.578.749-1.69.166-3.395.249-5.113.249-1.69 0-2.771-.069-3.242-.208-.444-.166-.666-.429-.666-.79v-17.875h-5.778c-.305 0-.568-.388-.79-1.164-.221-.776-.332-1.926-.332-3.451 0-1.552.166-2.937.498-4.157.333-1.247.776-1.87 1.33-1.87h22.491c.415 0 .693.388.831 1.164.166.776.25 1.898.25 3.367s-.153 2.854-.458 4.157c-.305 1.302-.72 1.954-1.247 1.954h-5.196v17.875ZM116.777 174c-1.33 0-2.203-.097-2.618-.291-.416-.194-.707-.527-.873-.998l-9.188-25.358c0-.527.984-1.136 2.952-1.829a18.263 18.263 0 0 1 6.028-1.039c2.605 0 3.99.817 4.157 2.452l1.413 13.178h.582l1.164-13.178c.139-1.635 2.009-2.452 5.612-2.452 1.386 0 2.314.194 2.785.582.472.36.735.845.79 1.455l1.372 13.593h.582l1.081-13.178c.083-.803 1.025-1.413 2.827-1.829a24.309 24.309 0 0 1 5.404-.623c1.801 0 3.021.263 3.658.789.665.527.998 1.081.998 1.663l-8.896 25.774c-.305.859-2.356 1.289-6.153 1.289-1.136 0-1.898-.097-2.286-.291-.388-.194-.651-.527-.79-.998l-2.162-7.233h-.498l-2.204 7.233c-.249.859-2.161 1.289-5.737 1.289ZM161.19 174.374c-2.3 0-4.282-.208-5.945-.623-1.635-.444-3.145-1.22-4.531-2.328-2.799-2.19-4.199-6.388-4.199-12.596 0-2.606.374-4.878 1.123-6.818.776-1.94 1.843-3.478 3.201-4.614 2.66-2.218 6.111-3.326 10.351-3.326 2.189 0 4.088.194 5.695.582 1.635.388 3.173 1.095 4.614 2.12 2.91 2.106 4.365 6.125 4.365 12.056 0 5.321-1.316 9.242-3.949 11.764-2.633 2.522-6.208 3.783-10.725 3.783Zm-1.372-7.108c.333.387.79.581 1.372.581.582 0 1.039-.194 1.372-.581.332-.416.609-1.275.831-2.578.222-1.33.333-3.173.333-5.529s-.111-4.171-.333-5.446c-.222-1.274-.499-2.106-.831-2.494-.333-.388-.79-.582-1.372-.582-.582 0-1.039.194-1.372.582-.333.388-.61 1.22-.831 2.494-.222 1.275-.333 3.09-.333 5.446s.111 4.199.333 5.529c.221 1.303.498 2.162.831 2.578ZM191.032 172.794c0 .361-.845.652-2.536.873-1.69.222-3.395.333-5.113.333-1.691 0-2.785-.097-3.284-.291-.471-.194-.707-.499-.707-.915v-26.73c0-.72.901-1.233 2.702-1.538 1.829-.305 4.13-.457 6.901-.457s4.559.014 5.363.041c.831 0 1.801.042 2.91.125 1.108.083 1.981.222 2.619.416.665.194 1.385.443 2.161.748.804.305 1.428.707 1.871 1.206.443.471.873 1.039 1.289 1.704.748 1.192 1.122 2.896 1.122 5.113 0 2.19-.374 4.047-1.122 5.571-.721 1.496-1.691 2.633-2.91 3.409 3.187 5.016 4.78 8.203 4.78 9.561 0 1.358-2.729 2.037-8.189 2.037-1.58 0-2.675-.069-3.284-.208-.61-.138-.998-.443-1.164-.914l-2.702-8.564-.707-.042v8.522Zm0-14.924h1.081c1.607 0 2.411-1.247 2.411-3.741 0-1.275-.222-2.175-.665-2.702-.416-.527-.901-.79-1.455-.79h-1.372v7.233ZM221.579 172.711c0 .361-.859.652-2.577.873a38.918 38.918 0 0 1-5.072.333c-1.69 0-2.771-.097-3.242-.291-.472-.194-.707-.499-.707-.915v-25.483c0-.72.776-1.358 2.328-1.912 1.579-.554 3.395-.831 5.446-.831 1.69 0 2.785.332 3.284.997.36.471.54.901.54 1.289v6.859h.333c0-.138.415-1.288 1.247-3.45 1.58-4.074 2.73-6.111 3.45-6.111 1.358 0 3.27.402 5.737 1.205 1.192.388 2.217.957 3.076 1.705.859.72 1.289 1.524 1.289 2.411 0 .554-.568 1.635-1.704 3.243-1.109 1.579-2.8 3.699-5.072 6.36a382.89 382.89 0 0 1 1.995 2.12c.804.859 1.871 2.148 3.201 3.866 1.358 1.691 2.037 2.896 2.037 3.617 0 .72-.651 1.566-1.954 2.536a20.45 20.45 0 0 1-4.157 2.328c-1.469.582-2.563.873-3.284.873-.471 0-1.122-.707-1.954-2.121-.803-1.441-1.787-3.589-2.951-6.443l-1.289 1.538v5.404Z"/></mask><path d="M34.137 36.374c-2.3 0-4.282-.208-5.945-.623-1.635-.444-3.145-1.22-4.53-2.328-2.8-2.19-4.2-6.389-4.2-12.596 0-2.606.375-4.878 1.123-6.818.776-1.94 1.843-3.478 3.2-4.614 2.661-2.218 6.112-3.326 10.352-3.326 2.19 0 4.088.194 5.695.582 1.635.388 3.173 1.095 4.615 2.12 2.91 2.106 4.365 6.125 4.365 12.056 0 5.32-1.317 9.242-3.95 11.764-2.633 2.522-6.208 3.783-10.725 3.783Zm-1.372-7.109c.333.389.79.582 1.372.582.582 0 1.04-.194 1.372-.582.332-.415.61-1.274.831-2.577.222-1.33.333-3.173.333-5.529 0-2.355-.111-4.17-.333-5.446-.221-1.274-.499-2.106-.831-2.494-.333-.388-.79-.582-1.372-.582-.582 0-1.04.194-1.372.582-.332.388-.61 1.22-.831 2.494-.222 1.275-.333 3.09-.333 5.446s.111 4.199.333 5.53c.222 1.302.499 2.16.831 2.576ZM79.61 24.402c0 3.99-1.15 6.984-3.45 8.979-2.273 1.968-5.585 2.952-9.936 2.952-4.323 0-7.65-.984-9.977-2.952-2.328-1.995-3.492-4.989-3.492-8.98V9.146c0-.693.776-1.316 2.328-1.87 1.58-.555 3.409-.832 5.487-.832 1.663 0 2.744.319 3.243.956.36.499.54.929.54 1.289v12.388c0 3.132.111 5.21.333 6.236.25.997.762 1.496 1.538 1.496s1.26-.485 1.455-1.455c.222-.998.332-3.104.332-6.319V9.145c0-.693.776-1.316 2.329-1.87 1.58-.555 3.394-.832 5.445-.832 1.746 0 2.855.319 3.326.956.332.499.499.929.499 1.289v15.714ZM101.833 35.002c0 .305-.859.555-2.577.749-1.69.166-3.395.249-5.114.249-1.69 0-2.771-.07-3.242-.208-.444-.166-.665-.43-.665-.79V17.127h-5.779c-.305 0-.568-.388-.79-1.164-.221-.776-.332-1.926-.332-3.45 0-1.553.166-2.938.499-4.158.332-1.247.776-1.87 1.33-1.87h22.49c.416 0 .693.388.831 1.164.167.776.25 1.898.25 3.367s-.153 2.854-.457 4.157c-.305 1.303-.721 1.954-1.248 1.954h-5.196v17.875ZM125.752 36h-9.811c-1.358 0-2.273-.097-2.744-.291-.471-.194-.707-.513-.707-.956V8.522c0-.721.305-1.234.915-1.539.61-.332 1.663-.498 3.159-.498h9.354c5.321 0 8.993 1.053 11.016 3.159 2.023 2.079 3.035 5.875 3.035 11.39 0 5.515-1.053 9.396-3.16 11.64-2.106 2.217-5.792 3.326-11.057 3.326Zm-.333-23.321c-.665 0-1.109.055-1.33.166V29.64l1.579.166c.832 0 1.455-.665 1.871-1.995.444-1.33.665-3.631.665-6.901s-.221-5.46-.665-6.569c-.443-1.108-1.15-1.662-2.12-1.662ZM158.195 36.374c-2.3 0-4.281-.208-5.944-.623-1.635-.444-3.146-1.22-4.531-2.328-2.8-2.19-4.199-6.389-4.199-12.596 0-2.606.374-4.878 1.122-6.818.776-1.94 1.843-3.478 3.201-4.614 2.661-2.218 6.111-3.326 10.351-3.326 2.19 0 4.088.194 5.696.582 1.635.388 3.173 1.095 4.614 2.12 2.91 2.106 4.365 6.125 4.365 12.056 0 5.32-1.316 9.242-3.949 11.764-2.633 2.522-6.208 3.783-10.726 3.783Zm-1.371-7.109c.332.389.789.582 1.371.582s1.04-.194 1.372-.582c.333-.415.61-1.274.832-2.577.221-1.33.332-3.173.332-5.529 0-2.355-.111-4.17-.332-5.446-.222-1.274-.499-2.106-.832-2.494-.332-.388-.79-.582-1.372-.582-.582 0-1.039.194-1.371.582-.333.388-.61 1.22-.832 2.494-.222 1.275-.332 3.09-.332 5.446s.11 4.199.332 5.53c.222 1.302.499 2.16.832 2.576ZM190.864 36.374c-2.3 0-4.281-.208-5.944-.623-1.635-.444-3.146-1.22-4.532-2.328-2.799-2.19-4.198-6.389-4.198-12.596 0-2.606.374-4.878 1.122-6.818.776-1.94 1.843-3.478 3.201-4.614 2.661-2.218 6.111-3.326 10.351-3.326 2.19 0 4.088.194 5.696.582 1.635.388 3.173 1.095 4.614 2.12 2.91 2.106 4.365 6.125 4.365 12.056 0 5.32-1.317 9.242-3.949 11.764-2.633 2.522-6.208 3.783-10.726 3.783Zm-1.371-7.109c.332.389.789.582 1.371.582s1.04-.194 1.372-.582c.333-.415.61-1.274.832-2.577.221-1.33.332-3.173.332-5.529 0-2.355-.111-4.17-.332-5.446-.222-1.274-.499-2.106-.832-2.494-.332-.388-.79-.582-1.372-.582-.582 0-1.039.194-1.371.582-.333.388-.61 1.22-.832 2.494-.222 1.275-.332 3.09-.332 5.446s.11 4.199.332 5.53c.222 1.302.499 2.16.832 2.576ZM221.122 34.794c0 .36-.845.652-2.536.873-1.69.222-3.395.333-5.113.333-1.69 0-2.785-.097-3.284-.291-.471-.194-.707-.499-.707-.915V8.064c0-.72.901-1.233 2.702-1.538 1.83-.305 4.13-.457 6.901-.457 2.772 0 4.559.014 5.363.041.831 0 1.801.042 2.91.125 1.108.083 1.981.222 2.619.416a25.43 25.43 0 0 1 2.161.748c.804.305 1.428.707 1.871 1.206.444.47.873 1.039 1.289 1.704.748 1.192 1.122 2.896 1.122 5.113 0 2.19-.374 4.047-1.122 5.57-.721 1.497-1.691 2.634-2.91 3.41 3.187 5.016 4.781 8.203 4.781 9.561 0 1.358-2.73 2.037-8.19 2.037-1.58 0-2.674-.07-3.284-.208-.61-.138-.998-.443-1.164-.914l-2.702-8.564-.707-.042v8.522Zm0-14.923h1.081c1.607 0 2.411-1.248 2.411-3.742 0-1.275-.222-2.176-.665-2.702-.416-.527-.901-.79-1.455-.79h-1.372v7.233ZM41.925 132.296c0 1.277-2.768 2.214-8.302 2.81-5.45.596-10.643.894-15.582.894-4.938 0-8.131-.298-9.579-.894-1.447-.596-2.17-1.533-2.17-2.81V51.323c0-2.214 1.106-3.789 3.32-4.726 2.214-.936 6.386-1.404 12.516-1.404h47.384c1.788 0 2.682 3.235 2.682 9.706 0 6.386-.426 11.282-1.277 14.688-.767 3.32-1.788 4.98-3.066 4.98l-25.926-1.276v8.684c11.324-.51 18.902-.766 22.733-.766 1.278 0 2.129.681 2.555 2.043.51 1.363.766 4.002.766 7.919 0 3.831-.426 7.535-1.277 11.111-.852 3.491-2.044 5.237-3.576 5.237l-21.201-.766v25.543ZM159.8 100.367c0 12.261-3.533 21.456-10.6 27.587-6.982 6.045-17.157 9.068-30.525 9.068-13.283 0-23.5-3.023-30.652-9.068-7.152-6.131-10.728-15.326-10.728-27.587V53.494c0-2.128 2.383-4.044 7.152-5.747 4.853-1.703 10.473-2.554 16.858-2.554 5.109 0 8.43.979 9.962 2.937 1.107 1.533 1.661 2.852 1.661 3.96v38.06c0 9.62.34 16.007 1.022 19.157.766 3.065 2.341 4.598 4.725 4.598 2.384 0 3.874-1.49 4.47-4.47.681-3.066 1.022-9.537 1.022-19.413V53.494c0-2.128 2.384-4.044 7.152-5.747 4.853-1.703 10.43-2.554 16.731-2.554 5.364 0 8.77.979 10.218 2.937 1.021 1.533 1.532 2.852 1.532 3.96v48.277ZM201.767 132.296c0 1.107-2.64 2.001-7.919 2.682A119.739 119.739 0 0 1 178.266 136c-5.193 0-8.514-.298-9.962-.894-1.447-.596-2.171-1.533-2.171-2.81V53.877c0-2.128 2.427-4.087 7.28-5.875 4.939-1.788 10.516-2.682 16.731-2.682 2.214 0 3.874.085 4.981.256 2.895.425 4.939 2.256 6.131 5.492l12.261 32.95h.511v-30.14c0-2.13 2.426-4.088 7.279-5.876 4.854-1.788 10.388-2.682 16.604-2.682 5.364 0 8.77 1.022 10.217 3.066 1.022 1.447 1.533 2.767 1.533 3.959v79.951c0 1.107-2.64 2.001-7.919 2.682-5.194.681-10.941 1.022-17.242 1.022-6.215 0-9.621-.809-10.217-2.427l-11.878-31.418h-.638v30.141ZM31.47 172.794c0 .361-.86.652-2.577.873-1.69.222-3.381.333-5.072.333-1.69 0-2.771-.097-3.243-.291-.47-.194-.706-.499-.706-.915V147.27c0-.693.79-1.33 2.37-1.912 1.607-.582 3.422-.873 5.445-.873.72 0 1.261.027 1.621.083.943.138 1.608.734 1.996 1.787l3.99 10.726h.167v-9.811c0-.693.79-1.33 2.37-1.912 1.58-.582 3.38-.873 5.404-.873 1.746 0 2.854.332 3.325.997.333.471.5.901.5 1.289v26.023c0 .361-.86.652-2.578.873-1.69.222-3.562.333-5.612.333-2.023 0-3.132-.263-3.326-.79l-3.866-10.226h-.208v9.81ZM72.308 174H54.682c-1.358 0-2.272-.097-2.744-.291-.47-.194-.706-.499-.706-.915V146.48c0-.721.319-1.233.956-1.538.665-.305 1.843-.457 3.533-.457h16.712c.582 0 .873.97.873 2.91 0 1.912-.125 3.381-.374 4.406-.25.998-.582 1.497-.998 1.497-1.801 0-4.836-.18-9.104-.541v2.785c4.102-.166 6.776-.249 8.023-.249.749 0 1.123.873 1.123 2.619 0 1.746-.153 3.076-.458 3.991-.277.887-.665 1.33-1.164 1.33l-7.524-.166v2.66c4.822-.36 8.148-.54 9.977-.54.582 0 .873.97.873 2.91 0 1.94-.125 3.409-.374 4.406-.25.998-.582 1.497-.998 1.497ZM95.104 173.002c0 .305-.86.555-2.578.749-1.69.166-3.395.249-5.113.249-1.69 0-2.771-.069-3.242-.208-.444-.166-.666-.429-.666-.79v-17.875h-5.778c-.305 0-.568-.388-.79-1.164-.221-.776-.332-1.926-.332-3.451 0-1.552.166-2.937.498-4.157.333-1.247.776-1.87 1.33-1.87h22.491c.415 0 .693.388.831 1.164.166.776.25 1.898.25 3.367s-.153 2.854-.458 4.157c-.305 1.302-.72 1.954-1.247 1.954h-5.196v17.875ZM116.777 174c-1.33 0-2.203-.097-2.618-.291-.416-.194-.707-.527-.873-.998l-9.188-25.358c0-.527.984-1.136 2.952-1.829a18.263 18.263 0 0 1 6.028-1.039c2.605 0 3.99.817 4.157 2.452l1.413 13.178h.582l1.164-13.178c.139-1.635 2.009-2.452 5.612-2.452 1.386 0 2.314.194 2.785.582.472.36.735.845.79 1.455l1.372 13.593h.582l1.081-13.178c.083-.803 1.025-1.413 2.827-1.829a24.309 24.309 0 0 1 5.404-.623c1.801 0 3.021.263 3.658.789.665.527.998 1.081.998 1.663l-8.896 25.774c-.305.859-2.356 1.289-6.153 1.289-1.136 0-1.898-.097-2.286-.291-.388-.194-.651-.527-.79-.998l-2.162-7.233h-.498l-2.204 7.233c-.249.859-2.161 1.289-5.737 1.289ZM161.19 174.374c-2.3 0-4.282-.208-5.945-.623-1.635-.444-3.145-1.22-4.531-2.328-2.799-2.19-4.199-6.388-4.199-12.596 0-2.606.374-4.878 1.123-6.818.776-1.94 1.843-3.478 3.201-4.614 2.66-2.218 6.111-3.326 10.351-3.326 2.189 0 4.088.194 5.695.582 1.635.388 3.173 1.095 4.614 2.12 2.91 2.106 4.365 6.125 4.365 12.056 0 5.321-1.316 9.242-3.949 11.764-2.633 2.522-6.208 3.783-10.725 3.783Zm-1.372-7.108c.333.387.79.581 1.372.581.582 0 1.039-.194 1.372-.581.332-.416.609-1.275.831-2.578.222-1.33.333-3.173.333-5.529s-.111-4.171-.333-5.446c-.222-1.274-.499-2.106-.831-2.494-.333-.388-.79-.582-1.372-.582-.582 0-1.039.194-1.372.582-.333.388-.61 1.22-.831 2.494-.222 1.275-.333 3.09-.333 5.446s.111 4.199.333 5.529c.221 1.303.498 2.162.831 2.578ZM191.032 172.794c0 .361-.845.652-2.536.873-1.69.222-3.395.333-5.113.333-1.691 0-2.785-.097-3.284-.291-.471-.194-.707-.499-.707-.915v-26.73c0-.72.901-1.233 2.702-1.538 1.829-.305 4.13-.457 6.901-.457s4.559.014 5.363.041c.831 0 1.801.042 2.91.125 1.108.083 1.981.222 2.619.416.665.194 1.385.443 2.161.748.804.305 1.428.707 1.871 1.206.443.471.873 1.039 1.289 1.704.748 1.192 1.122 2.896 1.122 5.113 0 2.19-.374 4.047-1.122 5.571-.721 1.496-1.691 2.633-2.91 3.409 3.187 5.016 4.78 8.203 4.78 9.561 0 1.358-2.729 2.037-8.189 2.037-1.58 0-2.675-.069-3.284-.208-.61-.138-.998-.443-1.164-.914l-2.702-8.564-.707-.042v8.522Zm0-14.924h1.081c1.607 0 2.411-1.247 2.411-3.741 0-1.275-.222-2.175-.665-2.702-.416-.527-.901-.79-1.455-.79h-1.372v7.233ZM221.579 172.711c0 .361-.859.652-2.577.873a38.918 38.918 0 0 1-5.072.333c-1.69 0-2.771-.097-3.242-.291-.472-.194-.707-.499-.707-.915v-25.483c0-.72.776-1.358 2.328-1.912 1.579-.554 3.395-.831 5.446-.831 1.69 0 2.785.332 3.284.997.36.471.54.901.54 1.289v6.859h.333c0-.138.415-1.288 1.247-3.45 1.58-4.074 2.73-6.111 3.45-6.111 1.358 0 3.27.402 5.737 1.205 1.192.388 2.217.957 3.076 1.705.859.72 1.289 1.524 1.289 2.411 0 .554-.568 1.635-1.704 3.243-1.109 1.579-2.8 3.699-5.072 6.36a382.89 382.89 0 0 1 1.995 2.12c.804.859 1.871 2.148 3.201 3.866 1.358 1.691 2.037 2.896 2.037 3.617 0 .72-.651 1.566-1.954 2.536a20.45 20.45 0 0 1-4.157 2.328c-1.469.582-2.563.873-3.284.873-.471 0-1.122-.707-1.954-2.121-.803-1.441-1.787-3.589-2.951-6.443l-1.289 1.538v5.404Z" fill="#fff"/><path d="m28.192 35.75-1.57 5.791.057.016.058.014 1.455-5.82Zm-4.53-2.327 3.747-4.686-.025-.02-.026-.02-3.697 4.726Zm-3.077-19.414-5.571-2.228-.014.034-.013.035 5.598 2.159Zm3.2-4.614-3.84-4.61-.01.008 3.85 4.602ZM39.833 6.65l-1.408 5.832.012.003.011.003 1.385-5.838Zm4.615 2.12 3.518-4.86-.02-.015-.02-.014-3.478 4.889Zm.415 23.82 4.15 4.333-4.15-4.333Zm-12.097-3.326-4.685 3.749.064.08.066.076 4.555-3.905Zm2.744 0 4.555 3.905.067-.077.063-.08-4.685-3.747Zm.831-2.577 5.915 1.007.002-.01.002-.01-5.919-.987Zm0-10.975 5.912-1.028-5.912 1.028Zm-3.575-2.494 4.556 3.905-4.556-3.905Zm-.831 2.494 5.911 1.028-5.911-1.028Zm0 10.975-5.919.986.002.01.002.01 5.915-1.006Zm44.225 6.693 3.928 4.536.004-.004-3.932-4.532Zm-19.912 0-3.905 4.556.016.013.016.013 3.873-4.582ZM55.083 7.274l-1.987-5.661-.015.005-.016.006 2.018 5.65Zm8.73.125 4.864-3.513-.068-.094-.071-.09-4.725 3.697Zm.873 19.913L58.82 28.58l.02.094.024.093 5.82-1.455Zm2.993.041-5.857-1.301-.014.062-.013.063 5.884 1.176Zm2.66-20.079-1.986-5.661-.016.005-.016.006 2.019 5.65Zm8.772.125 4.992-3.328-.08-.121-.087-.117-4.825 3.566Zm20.145 28.352.587 5.97.043-.003.043-.005-.673-5.962Zm-8.356.041-2.107 5.618.204.077.21.061 1.693-5.756Zm-.665-18.665h6v-6h-6v6Zm-6.569-1.164-5.769 1.648 5.77-1.648Zm.167-7.608 5.788 1.579.005-.016.004-.017-5.797-1.546Zm24.651-.706-5.906 1.054.018.102.022.1 5.866-1.256Zm-.207 7.524-5.843-1.367 5.843 1.367Zm-6.444 1.954v-6h-6v6h6Zm11.364 18.582 2.285-5.548-2.285 5.548Zm.208-28.726 2.683 5.367.096-.048.094-.051-2.873-5.268Zm23.529 2.661-4.327 4.156.014.015.014.014 4.299-4.185Zm-.125 23.03 4.35 4.133.013-.014.013-.013-4.376-4.106Zm-12.72-19.829-2.684-5.367-3.316 1.659v3.708h6Zm0 16.795h-6v5.401l5.372.566.628-5.967Zm1.579.166-.628 5.967.314.033h.314v-6Zm1.871-1.995-5.692-1.898-.018.054-.017.054 5.727 1.79Zm0-13.47-5.571 2.229 5.571-2.229Zm24.712 21.41-1.571 5.79.058.016.058.014 1.455-5.82Zm-4.531-2.328 3.748-4.686-.026-.02-.026-.02-3.696 4.726Zm-3.077-19.414-5.571-2.228-.013.034-.014.035 5.598 2.159Zm3.201-4.614-3.841-4.61-.009.008 3.85 4.602Zm16.047-2.744-1.408 5.832.011.003.011.003 1.386-5.838Zm4.614 2.12 3.518-4.86-.02-.015-.019-.014-3.479 4.889Zm.416 23.82 4.15 4.333-4.15-4.333Zm-12.097-3.326-4.686 3.749.064.08.066.076 4.556-3.905Zm2.743 0 4.556 3.905.066-.077.063-.08-4.685-3.747Zm.832-2.577 5.915 1.007.001-.01.002-.01-5.918-.987Zm0-10.975 5.911-1.028-5.911 1.028Zm-3.575-2.494 4.555 3.905-4.555-3.905Zm-.832 2.494 5.911 1.028-5.911-1.028Zm0 10.975-5.918.986.002.01.001.01 5.915-1.006Zm28.928 9.063-1.571 5.79.058.016.058.014 1.455-5.82Zm-4.532-2.328 3.749-4.686-.026-.02-.026-.02-3.697 4.726Zm-3.076-19.414-5.571-2.228-.013.034-.014.035 5.598 2.159Zm3.201-4.614-3.841-4.61-.009.008 3.85 4.602ZM196.56 6.65l-1.408 5.832.011.003.011.003 1.386-5.838Zm4.614 2.12 3.518-4.86-.02-.015-.02-.014-3.478 4.889Zm.416 23.82 4.15 4.333-4.15-4.333Zm-12.097-3.326-4.686 3.749.064.08.066.076 4.556-3.905Zm2.743 0 4.556 3.905.066-.077.063-.08-4.685-3.747Zm.832-2.577 5.915 1.007.001-.01.002-.01-5.918-.987Zm0-10.975 5.911-1.028-5.911 1.028Zm-3.575-2.494 4.555 3.905-4.555-3.905Zm-.832 2.494 5.911 1.028-5.911-1.028Zm0 10.975-5.918.986.001.01.002.01 5.915-1.006Zm29.925 8.98-.78-5.95.78 5.95Zm-8.397.041-2.284 5.548.054.023.055.021 2.175-5.592Zm1.995-29.183-.986-5.918-.007.001-.008.001 1.001 5.916Zm12.264-.416-.207 5.997.103.004h.104v-6Zm2.91.125-.449 5.983.449-5.983Zm2.619.416-1.747 5.74.033.01.034.01 1.68-5.76Zm2.161.748-2.193 5.585.032.013.034.012 2.127-5.61Zm1.871 1.206-4.484 3.986.056.064.059.062 4.369-4.112Zm1.289 1.704-5.088 3.18.007.01 5.081-3.19Zm0 10.684-5.386-2.644-.01.02-.01.021 5.406 2.603Zm-2.91 3.409-3.221-5.062-5.059 3.219 3.216 5.06 5.064-3.217Zm-6.693 11.39-1.33 5.85 1.33-5.85Zm-1.164-.914-5.722 1.805.03.096.034.095 5.658-1.996Zm-2.702-8.564 5.722-1.805-1.244-3.942-4.126-.243-.352 5.99Zm-.707-.042.352-5.99-6.352-.373v6.363h6Zm0-6.401h-6v6h6v-6Zm2.827-6.444-4.709 3.718.058.074.062.073 4.589-3.865Zm-2.827-.79v-6h-6v6h6Zm-187.5 122.469-.642-5.966-.01.002.653 5.964Zm-25.16 0 2.285-5.548-2.285 5.548Zm1.15-88.509-2.338-5.525 2.338 5.525Zm61.305 22.99-5.821-1.456-.014.053-.012.053 5.847 1.35Zm-3.066 4.98-.295 5.993.148.008h.147v-6Zm-25.926-1.276.295-5.993-6.295-.31v6.302h6Zm0 8.684h-6v6.277l6.27-.283-.27-5.994Zm25.288 1.278-5.727 1.79.05.16.059.156 5.618-2.106Zm-.511 19.029 5.829 1.422.004-.016.004-.016-5.837-1.39Zm-3.576 5.237-.217 5.996.108.004h.109v-6Zm-21.201-.766.216-5.997-6.216-.224v6.221h6ZM149.2 127.954l3.927 4.536.004-.004-3.931-4.532Zm-61.177 0-3.905 4.555.016.014.016.013 3.873-4.582Zm-3.576-80.207-1.987-5.662-.016.006-.015.005 2.018 5.65Zm26.82.383 4.865-3.513-.068-.094-.072-.09-4.725 3.697Zm2.683 61.177-5.865 1.268.02.094.024.093 5.821-1.455Zm9.195.128-5.857-1.302-.014.062-.012.063 5.883 1.177Zm8.174-61.688-1.986-5.662-.016.006-.016.005 2.018 5.65Zm26.949.383 4.992-3.328-.081-.121-.086-.117-4.825 3.566Zm35.58 86.848-.768-5.95-.012.001.78 5.949Zm-25.544.128 2.285-5.548-2.285 5.548Zm5.109-87.104-2.042-5.641-.016.005-.016.006 2.074 5.63Zm21.712-2.426-.912 5.93.02.003.019.003.873-5.936Zm6.131 5.492-5.63 2.074.003.009.003.009 5.624-2.092Zm12.261 32.95-5.624 2.093 1.454 3.908h4.17v-6Zm.511 0v6h6v-6h-6Zm7.279-36.016 2.075 5.63-2.075-5.63Zm26.821.383 4.902-3.46-.006-.008-4.896 3.468Zm-6.386 86.593-.768-5.95-.012.001.78 5.949Zm-27.459-1.405 5.63-2.074-.009-.024-.009-.023-5.612 2.121Zm-11.878-31.418 5.613-2.122-1.467-3.878h-4.146v6Zm-.638 0v-6h-6v6h6ZM28.893 173.667l-.768-5.95-.013.001.78 5.949Zm-8.315.042 2.285-5.548-2.285 5.548Zm1.663-28.351-2.042-5.642-.016.006-.016.006 2.074 5.63Zm7.067-.79-.912 5.93.02.003.02.003.872-5.936Zm1.996 1.787-5.63 2.075.003.009.003.009 5.624-2.093Zm3.99 10.726-5.623 2.092 1.454 3.908h4.17v-6Zm.167 0v6h6v-6h-6Zm2.37-11.723 2.074 5.63-2.075-5.63Zm8.73.124 4.901-3.46-.006-.008-4.896 3.468Zm-2.08 28.185-.767-5.95-.012.001.78 5.949Zm-8.937-.457 5.63-2.074-.009-.024-.009-.024-5.612 2.122Zm-3.866-10.226 5.612-2.122-1.466-3.878h-4.146v6Zm-.208 0v-6h-6v6h6Zm20.468 10.725 2.285-5.548-2.285 5.548Zm.25-28.767-2.5-5.454-.045.02-.044.021 2.589 5.413Zm20.744 6.859 5.82 1.455.005-.018.005-.019-5.83-1.418Zm-10.102.956.505-5.979-6.505-.549v6.528h6Zm0 2.785h-6v6.249l6.243-.253-.243-5.996Zm8.688 6.361-5.692-1.898-.018.054-.017.054 5.727 1.79Zm-1.164 1.33-.132 5.999.066.001h.066v-6Zm-7.524-.166.133-5.999-6.133-.135v6.134h6Zm0 2.66h-6v6.465l6.447-.481-.447-5.984Zm29.696 8.024.588 5.971.043-.004.043-.005-.674-5.962Zm-8.355.041-2.107 5.618.204.077.21.061 1.693-5.756Zm-.666-18.665h6v-6h-6v6Zm-6.568-1.164-5.769 1.648 5.77-1.648Zm.166-7.608 5.79 1.579.004-.016.004-.017-5.797-1.546Zm24.652-.706-5.906 1.054.018.102.021.101 5.867-1.257Zm-.208 7.524-5.842-1.367 5.842 1.367Zm-6.443 1.954v-6h-6v6h6Zm19.055 18.582-2.538 5.437 2.538-5.437Zm-.873-.998 5.657-1.997-.008-.023-.008-.023-5.641 2.043Zm-9.188-25.358h-6v1.053l.36.991 5.64-2.044Zm2.952-1.829-1.968-5.668-.013.004-.012.004 1.993 5.66Zm10.185 1.413-5.969.607.001.017.002.016 5.966-.64Zm1.413 13.178-5.966.64.575 5.36h5.391v-6Zm.582 0v6h5.494l.483-5.472-5.977-.528Zm1.164-13.178 5.977.528.001-.01.001-.011-5.979-.507Zm8.397-1.87-3.814 4.631.084.069.086.066 3.644-4.766Zm.79 1.455-5.975.543.003.029.003.03 5.969-.602Zm1.372 13.593-5.97.603.545 5.397h5.425v-6Zm.582 0v6h5.528l.452-5.509-5.98-.491Zm1.081-13.178-5.968-.617-.007.063-.005.064 5.98.49Zm2.827-1.829-1.33-5.851-.01.003-.009.002 1.349 5.846Zm9.062.166-3.821 4.626.048.04.049.039 3.724-4.705Zm.998 1.663 5.672 1.958.328-.951v-1.007h-6Zm-8.896 25.774 5.654 2.007.009-.025.008-.024-5.671-1.958Zm-9.229 0 5.756-1.693-.003-.012-.004-.013-5.749 1.718Zm-2.162-7.233 5.749-1.718-1.28-4.282h-4.469v6Zm-.498 0v-6h-4.445l-1.295 4.252 5.74 1.748Zm-2.204 7.233-5.739-1.748-.012.038-.011.037 5.762 1.673Zm32.731 1.04-1.57 5.79.057.016.058.014 1.455-5.82Zm-4.531-2.328 3.748-4.686-.026-.02-.025-.02-3.697 4.726Zm-3.076-19.414-5.571-2.228-.014.034-.013.035 5.598 2.159Zm3.201-4.614-3.841-4.61-.01.008 3.851 4.602Zm16.046-2.744-1.408 5.832.012.003.011.003 1.385-5.838Zm4.614 2.12 3.518-4.86-.019-.015-.02-.014-3.479 4.889Zm.416 23.82 4.151 4.333-4.151-4.333Zm-12.097-3.325-4.685 3.748.063.079.066.077 4.556-3.904Zm2.744 0 4.555 3.904.066-.077.064-.079-4.685-3.748Zm.831-2.578 5.915 1.007.002-.01.001-.011-5.918-.986Zm0-10.975 5.911-1.028-5.911 1.028Zm-3.575-2.494 4.556 3.905-4.556-3.905Zm-.831 2.494 5.911 1.028-5.911-1.028Zm0 10.975-5.919.986.002.011.002.01 5.915-1.007Zm29.509 8.979-.78-5.949.78 5.949Zm-8.397.042-2.285 5.548.055.023.055.021 2.175-5.592Zm1.995-29.183-.986-5.918-.008.001-.007.001 1.001 5.916Zm12.264-.416-.207 5.997.103.003h.104v-6Zm2.91.125-.449 5.983.449-5.983Zm2.619.416-1.747 5.74.033.01.034.01 1.68-5.76Zm2.161.748-2.194 5.585.033.013.033.012 2.128-5.61Zm1.871 1.206-4.485 3.986.057.064.059.062 4.369-4.112Zm1.289 1.704-5.088 3.18.006.011 5.082-3.191Zm0 10.684-5.386-2.644-.01.02-.01.021 5.406 2.603Zm-2.91 3.409-3.222-5.062-5.058 3.219 3.215 5.06 5.065-3.217Zm-6.693 11.39-1.33 5.851 1.33-5.851Zm-1.164-.914-5.722 1.805.03.096.034.096 5.658-1.997Zm-2.702-8.564 5.722-1.805-1.244-3.942-4.126-.243-.352 5.99Zm-.707-.042.352-5.989-6.352-.374v6.363h6Zm0-6.402h-6v6h6v-6Zm2.827-6.443-4.71 3.718.059.074.061.073 4.59-3.865Zm-2.827-.79v-6h-6v6h6Zm27.97 22.947-.768-5.95-.012.001.78 5.949Zm-8.314.042 2.284-5.548-2.284 5.548Zm1.621-28.31-1.987-5.662-.015.006-.016.006 2.018 5.65Zm8.73.166-4.8 3.6.017.023.017.022 4.766-3.645Zm.54 8.148h-6v6h6v-6Zm.333 0v6h6v-6h-6Zm1.247-3.45-5.594-2.169-.003.007-.003.008 5.6 2.154Zm9.187-4.906-1.859 5.705.001.001 1.858-5.706Zm3.076 1.705-3.94 4.524.042.037.043.036 3.855-4.597Zm-.415 5.654-4.9-3.464-.006.009-.006.008 4.912 3.447Zm-5.072 6.36-4.562-3.897-3.511 4.11 3.723 3.919 4.35-4.132Zm1.995 2.12-4.381 4.099 4.381-4.099Zm3.201 3.866-4.744 3.673.033.043.034.042 4.677-3.758Zm.083 6.153 3.517 4.861.034-.024.033-.025-3.584-4.812Zm-4.157 2.328 2.21 5.578.046-.018.045-.019-2.301-5.541Zm-5.238-1.248-5.24 2.923.034.06.035.06 5.171-3.043Zm-2.951-6.443 5.556-2.266-3.76-9.22-6.395 7.633 4.599 3.853Zm-1.289 1.538-4.599-3.853-1.401 1.672v2.181h6ZM34.137 30.374c-1.965 0-3.433-.18-4.49-.444l-2.91 11.641c2.27.568 4.765.803 7.4.803v-12Zm-4.374-.414c-.804-.218-1.58-.603-2.354-1.223l-7.496 9.37c1.997 1.598 4.242 2.766 6.709 3.434l3.14-11.581Zm-2.405-1.263c-.55-.43-1.896-2.18-1.896-7.87h-12c0 6.726 1.453 13.372 6.503 17.322l7.393-9.452Zm-1.896-7.87c0-2.047.296-3.557.72-4.659L14.988 11.85c-1.072 2.778-1.524 5.813-1.524 8.977h12Zm.694-4.59c.474-1.184 1.01-1.847 1.48-2.24l-7.7-9.204c-2.245 1.878-3.844 4.292-4.922 6.988l11.142 4.456Zm1.471-2.233c1.356-1.13 3.347-1.935 6.51-1.935v-12c-5.318 0-10.227 1.412-14.192 4.716l7.682 9.219Zm6.51-1.935c1.858 0 3.262.167 4.287.414L41.24.818c-2.19-.528-4.582-.75-7.103-.75v12Zm4.31.42c.844.2 1.676.57 2.521 1.17l6.957-9.777c-2.037-1.45-4.28-2.493-6.707-3.069l-2.771 11.676Zm2.482 1.142c.556.403 1.883 1.935 1.883 7.196h12c0-6.601-1.584-13.107-6.847-16.916l-7.036 9.72Zm1.883 7.196c0 4.44-1.101 6.475-2.1 7.431l8.3 8.666c4.268-4.087 5.8-9.896 5.8-16.097h-12Zm-2.1 7.431c-1.264 1.21-3.215 2.116-6.575 2.116v12c5.675 0 10.873-1.616 14.876-5.45l-8.301-8.666ZM28.21 33.17c1.638 1.911 3.865 2.677 5.927 2.677v-12c.378 0 .935.065 1.564.331a4.41 4.41 0 0 1 1.62 1.183l-9.111 7.81Zm5.927 2.677c2.062 0 4.29-.766 5.927-2.677l-9.11-7.81a4.412 4.412 0 0 1 1.62-1.181 4.035 4.035 0 0 1 1.563-.331v12Zm6.057-2.833c.83-1.038 1.254-2.154 1.482-2.863.257-.796.44-1.639.58-2.456l-11.83-2.014c-.04.232-.077.414-.109.552-.032.14-.054.213-.061.234-.008.026.013-.047.08-.185.034-.072.087-.175.162-.3.075-.124.181-.284.326-.465l9.37 7.497Zm2.065-5.34c.301-1.81.414-4.034.414-6.515h-12c0 2.23-.11 3.692-.251 4.543l11.837 1.972Zm.414-6.515c0-2.47-.111-4.69-.421-6.474l-11.823 2.056c.133.766.244 2.176.244 4.418h12Zm-.421-6.474c-.14-.807-.328-1.65-.594-2.449-.233-.7-.685-1.861-1.594-2.922l-9.11 7.81a4.207 4.207 0 0 1-.573-.848 2.608 2.608 0 0 1-.107-.245l.004.013.01.037c.01.033.023.08.037.142.03.126.065.297.104.518l11.823-2.056Zm-2.188-5.37c-1.638-1.912-3.865-2.678-5.927-2.678v12c-.378 0-.935-.064-1.564-.33a4.412 4.412 0 0 1-1.62-1.183l9.111-7.81Zm-5.927-2.678c-2.062 0-4.29.766-5.927 2.677l9.11 7.81a4.41 4.41 0 0 1-1.62 1.182 4.035 4.035 0 0 1-1.563.331v-12ZM28.21 9.314c-.91 1.06-1.36 2.221-1.594 2.922a17.052 17.052 0 0 0-.593 2.45l11.822 2.055a8.888 8.888 0 0 1 .14-.66 2.218 2.218 0 0 1 .01-.035l-.017.044a2.575 2.575 0 0 1-.085.186c-.075.15-.25.472-.572.848l-9.111-7.81Zm-2.188 5.371c-.31 1.784-.42 4.005-.42 6.474h12c0-2.242.11-3.652.243-4.418l-11.822-2.056Zm-.42 6.474c0 2.481.112 4.705.413 6.515l11.837-1.972c-.142-.85-.25-2.313-.25-4.543h-12Zm.417 6.536c.139.817.322 1.66.579 2.456.228.71.652 1.825 1.482 2.863l9.37-7.497c.145.18.251.341.326.465.075.125.128.228.163.3.066.138.087.211.08.185a3.053 3.053 0 0 1-.062-.234 9.842 9.842 0 0 1-.108-.552l-11.83 2.014Zm47.59-3.293c0 2.826-.774 3.92-1.381 4.447l7.863 9.064c3.993-3.464 5.519-8.356 5.519-13.511h-12Zm-1.377 4.443c-.783.678-2.466 1.488-6.008 1.488v12c5.16 0 10.101-1.159 13.863-4.416l-7.855-9.072Zm-6.008 1.488c-3.49 0-5.235-.8-6.104-1.534l-7.746 9.164c3.786 3.201 8.693 4.37 13.85 4.37v-12Zm-6.072-1.507c-.623-.534-1.397-1.62-1.397-4.424h-12c0 5.178 1.553 10.077 5.587 13.535l7.81-9.111Zm-1.397-4.424V9.145h-12v15.257h12Zm0-15.257c0 2.163-1.275 3.381-1.66 3.69-.364.292-.496.27.006.09L53.065 1.624c-1.05.375-2.346.94-3.486 1.857-1.16.932-2.824 2.808-2.824 5.664h12Zm-1.686 3.791c.809-.284 1.942-.493 3.501-.493v-12c-2.598 0-5.123.345-7.474 1.17l3.974 11.323Zm3.501-.493c.503 0 .566.055.361-.006-.201-.06-1.073-.356-1.843-1.34l9.45-7.396c-1.27-1.621-2.93-2.396-4.213-2.774C63.04.547 61.731.443 60.57.443v12Zm-1.621-1.53c-.008-.011-.131-.18-.264-.497a4.482 4.482 0 0 1-.332-1.728h12c0-2.237-1.046-3.93-1.676-4.802l-9.728 7.026Zm-.596-2.225v12.388h12V8.688h-12Zm0 12.388c0 3.024.089 5.748.468 7.504l11.73-2.536c.005.025-.016-.07-.045-.338a20.063 20.063 0 0 1-.078-1.042 69.911 69.911 0 0 1-.075-3.588h-12Zm.512 7.69c.283 1.134.876 2.672 2.208 3.968 1.477 1.437 3.346 2.074 5.151 2.074v-12c1.03 0 2.254.388 3.218 1.326.82.797 1.031 1.587 1.065 1.722l-11.642 2.91Zm7.359 6.042c1.751 0 3.67-.602 5.188-2.12 1.375-1.375 1.919-3 2.15-4.158l-11.767-2.354c.038-.187.243-1.085 1.132-1.974a4.728 4.728 0 0 1 3.297-1.394v12Zm7.312-6.153c.39-1.756.475-4.543.475-7.62h-12c0 1.55-.027 2.766-.074 3.675-.053.993-.118 1.354-.115 1.342l11.714 2.603Zm.475-7.62V9.144h-12v11.89h12Zm0-11.89c0 2.163-1.275 3.381-1.66 3.69-.363.292-.496.27.007.09L68.32 1.624c-1.05.375-2.346.94-3.486 1.857-1.16.932-2.823 2.808-2.823 5.664h12Zm-1.685 3.791c.816-.286 1.938-.493 3.46-.493v-12c-2.581 0-5.09.348-7.433 1.17l3.973 11.323Zm3.46-.493c.568 0 .668.059.482.005-.157-.045-1.147-.352-1.982-1.482l9.65-7.133C82.629 2.065 80.85 1.28 79.584.916 78.29.544 76.963.443 75.785.443v12Zm-1.667-1.716c-.008-.012-.115-.171-.23-.466a4.374 4.374 0 0 1-.28-1.573h12c0-2.096-.908-3.721-1.506-4.617l-9.984 6.656Zm-.51-2.04v15.715h12V8.688h-12Zm22.224 26.315c0-3.049 2.157-4.547 2.586-4.823a4.78 4.78 0 0 1 .782-.411c.16-.066.274-.1.315-.112.073-.021-.162.045-.934.132l1.347 11.925c.947-.107 2-.262 2.933-.533a7.815 7.815 0 0 0 2.063-.918c.643-.415 2.908-2.058 2.908-5.26h-12Zm2.835-5.223c-1.493.147-3.001.221-4.526.221v12c1.913 0 3.813-.093 5.701-.278l-1.175-11.943ZM94.142 30c-.78 0-1.331-.016-1.694-.04a4.781 4.781 0 0 1-.284-.024c-.046-.006.133.013.429.1l-3.386 11.512c.925.272 1.889.35 2.473.388a39.44 39.44 0 0 0 2.462.064V30Zm-1.135.174a4.854 4.854 0 0 1 1.983 1.431 5.298 5.298 0 0 1 1.245 3.397h-12c0 1.523.51 3.066 1.577 4.333.977 1.16 2.14 1.76 2.981 2.075l4.214-11.236Zm3.228 4.828V17.127h-12v17.875h12Zm-6-23.875h-5.779v12h5.779v-12Zm-5.779 0a5.486 5.486 0 0 1 4.54 2.34c.393.58.483.997.44.848L77.897 17.61c.18.626.511 1.626 1.168 2.594.621.915 2.346 2.922 5.391 2.922v-12Zm4.98 3.188c.022.076-.013-.02-.047-.372a15.352 15.352 0 0 1-.055-1.43h-12c0 1.68.108 3.503.563 5.098l11.539-3.296Zm-.102-1.803c0-1.135.123-1.974.287-2.578L78.044 6.777c-.5 1.835-.71 3.766-.71 5.735h12Zm.296-2.61c.09-.34.058-.012-.325.527a5.099 5.099 0 0 1-4.142 2.056v-12c-2.9 0-4.754 1.747-5.638 2.99-.827 1.163-1.248 2.427-1.49 3.334L89.63 9.901Zm-4.467 2.583h22.49v-12h-22.49v12Zm22.49 0a5.425 5.425 0 0 1-2.646-.693 5.278 5.278 0 0 1-1.717-1.529 4.567 4.567 0 0 1-.586-1.106 2.853 2.853 0 0 1-.126-.454l11.813-2.11c-.136-.761-.448-2.062-1.336-3.305-1.074-1.504-2.951-2.803-5.402-2.803v12Zm-5.035-3.58c.032.152.116.772.116 2.11h12c0-1.598-.083-3.223-.383-4.624l-11.733 2.515Zm.116 2.11c0 1.054-.109 1.978-.3 2.79l11.685 2.735c.419-1.792.615-3.64.615-5.524h-12Zm-.3 2.79c-.093.4-.085.122.245-.395a5.168 5.168 0 0 1 4.35-2.283v12c3.165 0 5.009-2.077 5.765-3.26.745-1.168 1.113-2.425 1.325-3.327l-11.685-2.734Zm4.595-2.678h-5.196v12h5.196v-12Zm-11.196 6v17.875h12V17.127h-12ZM125.752 30h-9.811v12h9.811V30Zm-9.811 0c-.27 0-.495-.005-.68-.013a6.476 6.476 0 0 1-.392-.026c-.083-.01-.076-.012-.002.003.039.009.111.025.208.053.095.028.235.073.407.144l-4.569 11.096c1.026.423 2.044.568 2.691.637.74.078 1.536.106 2.337.106V30Zm-.459.16a4.805 4.805 0 0 1 2.01 1.598 5.07 5.07 0 0 1 .998 2.995h-12c0 1.345.381 2.824 1.352 4.138.929 1.257 2.107 1.97 3.071 2.366l4.569-11.096Zm3.008 4.593V8.522h-12v26.23h12Zm0-26.231c0 .494-.11 1.294-.614 2.141a4.396 4.396 0 0 1-1.788 1.687l-5.366-10.733a7.602 7.602 0 0 0-3.16 2.913c-.809 1.36-1.072 2.777-1.072 3.992h12Zm-2.212 3.729c-.29.158-.512.232-.608.261-.101.03-.136.032-.082.024.051-.008.157-.022.328-.033.169-.01.383-.018.648-.018v-12c-1.593 0-3.99.117-6.032 1.231l5.746 10.535Zm.286.234h9.354v-12h-9.354v12Zm9.354 0c4.914 0 6.431 1.047 6.689 1.315l8.654-8.312c-3.788-3.945-9.615-5.003-15.343-5.003v12Zm6.717 1.344c.295.303 1.334 2.005 1.334 7.205h12c0-5.83-.984-11.721-4.735-15.575l-8.599 8.37Zm1.334 7.205c0 5.085-1.036 7.003-1.535 7.535l8.751 8.21c3.714-3.957 4.784-9.8 4.784-15.745h-12Zm-1.51 7.508c-.384.405-1.971 1.458-6.707 1.458v12c5.795 0 11.58-1.164 15.407-5.193l-8.7-8.265Zm-7.04-21.863c-.474 0-1.019.018-1.576.088-.445.055-1.413.2-2.438.711l5.367 10.734a4.993 4.993 0 0 1-1.02.381 3.574 3.574 0 0 1-.42.08c-.113.015-.104.006.087.006v-12Zm-7.33 6.166V29.64h12V12.845h-12Zm5.372 22.762 1.579.166 1.257-11.934-1.58-.166-1.256 11.934Zm2.207.199c5.043 0 7.008-4.319 7.598-6.206l-11.454-3.58c-.067.217.023-.233.57-.817a4.403 4.403 0 0 1 1.376-.979 4.615 4.615 0 0 1 1.91-.418v12Zm7.563-6.098c.78-2.34.973-5.513.973-8.798h-12c0 1.514-.052 2.703-.138 3.602-.043.446-.092.787-.138 1.038-.047.258-.082.366-.081.363l11.384 3.795Zm.973-8.798c0-1.75-.058-3.333-.197-4.7-.128-1.267-.361-2.756-.897-4.097l-11.142 4.457c-.093-.232.007-.073.101.85.083.822.135 1.97.135 3.49h12Zm-1.094-8.797c-.489-1.222-1.316-2.63-2.731-3.74-1.496-1.173-3.247-1.694-4.96-1.694v12a4.029 4.029 0 0 1-2.445-.863c-.708-.556-.96-1.132-1.006-1.246l11.142-4.457Zm25.085 18.261c-1.965 0-3.432-.18-4.489-.444l-2.91 11.641c2.269.568 4.764.803 7.399.803v-12Zm-4.374-.414c-.803-.218-1.579-.603-2.353-1.223l-7.497 9.37c1.997 1.598 4.243 2.766 6.709 3.434l3.141-11.581Zm-2.405-1.263c-.549-.43-1.895-2.18-1.895-7.87h-12c0 6.726 1.453 13.372 6.502 17.322l7.393-9.452Zm-1.895-7.87c0-2.047.296-3.557.72-4.659l-11.196-4.318c-1.071 2.778-1.524 5.813-1.524 8.977h12Zm.693-4.59c.474-1.184 1.01-1.847 1.481-2.24l-7.701-9.204c-2.245 1.878-3.843 4.292-4.922 6.988l11.142 4.456Zm1.471-2.233c1.356-1.13 3.348-1.935 6.51-1.935v-12c-5.317 0-10.227 1.412-14.192 4.716l7.682 9.219Zm6.51-1.935c1.859 0 3.262.167 4.288.414L165.299.818c-2.19-.528-4.583-.75-7.104-.75v12Zm4.31.42c.844.2 1.677.57 2.522 1.17l6.957-9.777c-2.038-1.45-4.281-2.493-6.708-3.069l-2.771 11.676Zm2.482 1.142c.556.403 1.883 1.935 1.883 7.196h12c0-6.601-1.583-13.107-6.847-16.916l-7.036 9.72Zm1.883 7.196c0 4.44-1.101 6.475-2.1 7.431l8.301 8.666c4.267-4.087 5.799-9.896 5.799-16.097h-12Zm-2.1 7.431c-1.263 1.21-3.215 2.116-6.575 2.116v12c5.675 0 10.874-1.616 14.876-5.45l-8.301-8.666Zm-12.502 4.912c1.638 1.911 3.865 2.677 5.927 2.677v-12c.378 0 .936.065 1.564.331a4.406 4.406 0 0 1 1.62 1.183l-9.111 7.81Zm5.927 2.677c2.063 0 4.29-.766 5.928-2.677l-9.111-7.81a4.406 4.406 0 0 1 1.62-1.181 4.032 4.032 0 0 1 1.563-.331v12Zm6.057-2.833c.83-1.038 1.254-2.154 1.483-2.863.257-.796.44-1.639.579-2.456l-11.83-2.014c-.04.232-.077.414-.108.552-.033.14-.055.213-.062.234-.008.026.013-.047.08-.185.034-.072.087-.175.162-.3.075-.124.182-.284.326-.465l9.37 7.497Zm2.065-5.34c.302-1.81.414-4.034.414-6.515h-12c0 2.23-.109 3.692-.251 4.543l11.837 1.972Zm.414-6.515c0-2.47-.111-4.69-.421-6.474l-11.823 2.056c.134.766.244 2.176.244 4.418h12Zm-.421-6.474c-.14-.807-.327-1.65-.593-2.449-.234-.7-.685-1.861-1.594-2.922l-9.111 7.81a4.194 4.194 0 0 1-.572-.848 2.208 2.208 0 0 1-.104-.232 2.958 2.958 0 0 1 .048.18c.029.125.065.296.103.517l11.823-2.056Zm-2.187-5.37c-1.638-1.912-3.865-2.678-5.928-2.678v12c-.377 0-.935-.064-1.563-.33a4.406 4.406 0 0 1-1.62-1.183l9.111-7.81Zm-5.928-2.678c-2.062 0-4.289.766-5.927 2.677l9.111 7.81a4.406 4.406 0 0 1-1.62 1.182 4.033 4.033 0 0 1-1.564.331v-12Zm-5.927 2.677c-.909 1.06-1.36 2.221-1.594 2.922a17.024 17.024 0 0 0-.593 2.45l11.822 2.055c.039-.221.075-.392.104-.518a2.958 2.958 0 0 1 .046-.177 2.595 2.595 0 0 1-.102.23c-.075.15-.25.472-.572.848l-9.111-7.81Zm-2.187 5.371c-.31 1.784-.421 4.005-.421 6.474h12c0-2.242.11-3.652.243-4.418l-11.822-2.056Zm-.421 6.474c0 2.481.112 4.705.414 6.515l11.837-1.972c-.142-.85-.251-2.313-.251-4.543h-12Zm.417 6.536c.139.817.322 1.66.579 2.456.229.71.653 1.825 1.482 2.863l9.371-7.497a4.24 4.24 0 0 1 .488.765c.066.138.088.211.08.185a3.167 3.167 0 0 1-.062-.234 10.14 10.14 0 0 1-.108-.552l-11.83 2.014Zm40.787 2.68c-1.965 0-3.432-.181-4.489-.445l-2.91 11.641c2.269.568 4.764.803 7.399.803v-12Zm-4.374-.415c-.803-.218-1.579-.603-2.353-1.223l-7.497 9.37c1.997 1.598 4.243 2.766 6.709 3.434l3.141-11.581Zm-2.405-1.263c-.549-.43-1.895-2.18-1.895-7.87h-12c0 6.726 1.453 13.372 6.502 17.322l7.393-9.452Zm-1.895-7.87c0-2.047.295-3.557.72-4.659l-11.196-4.318c-1.072 2.778-1.524 5.813-1.524 8.977h12Zm.693-4.59c.474-1.184 1.01-1.847 1.481-2.24l-7.701-9.204c-2.245 1.878-3.844 4.292-4.922 6.988l11.142 4.456Zm1.471-2.233c1.356-1.13 3.348-1.935 6.51-1.935v-12c-5.317 0-10.227 1.412-14.192 4.716l7.682 9.219Zm6.51-1.935c1.858 0 3.262.167 4.288.414L197.967.818c-2.189-.528-4.582-.75-7.103-.75v12Zm4.31.42c.844.2 1.677.57 2.521 1.17l6.957-9.777c-2.037-1.45-4.281-2.493-6.707-3.069l-2.771 11.676Zm2.482 1.142c.556.403 1.883 1.935 1.883 7.196h12c0-6.601-1.583-13.107-6.847-16.916l-7.036 9.72Zm1.883 7.196c0 4.44-1.101 6.475-2.1 7.431l8.301 8.666c4.267-4.087 5.799-9.896 5.799-16.097h-12Zm-2.1 7.431c-1.263 1.21-3.215 2.116-6.575 2.116v12c5.675 0 10.874-1.616 14.876-5.45l-8.301-8.666Zm-12.502 4.912c1.638 1.911 3.865 2.677 5.927 2.677v-12c.378 0 .936.065 1.564.331a4.406 4.406 0 0 1 1.62 1.183l-9.111 7.81Zm5.927 2.677c2.063 0 4.29-.766 5.928-2.677l-9.111-7.81a4.406 4.406 0 0 1 1.62-1.181 4.032 4.032 0 0 1 1.563-.331v12Zm6.057-2.833c.83-1.038 1.254-2.154 1.483-2.863.257-.796.439-1.639.579-2.456l-11.83-2.014c-.04.232-.077.414-.108.552-.033.14-.055.213-.062.234-.008.026.013-.047.079-.185.035-.072.088-.175.163-.3.075-.124.182-.284.326-.465l9.37 7.497Zm2.065-5.34c.302-1.81.414-4.034.414-6.515h-12c0 2.23-.109 3.692-.251 4.543l11.837 1.972Zm.414-6.515c0-2.47-.111-4.69-.421-6.474l-11.823 2.056c.134.766.244 2.176.244 4.418h12Zm-.421-6.474a17.158 17.158 0 0 0-.593-2.449c-.234-.7-.686-1.861-1.594-2.922l-9.111 7.81a4.194 4.194 0 0 1-.572-.848 2.208 2.208 0 0 1-.104-.232c.003.008.007.02.011.037.009.033.022.08.036.142.03.126.066.297.104.518l11.823-2.056Zm-2.187-5.37c-1.638-1.912-3.865-2.678-5.928-2.678v12c-.377 0-.935-.064-1.563-.33a4.406 4.406 0 0 1-1.62-1.183l9.111-7.81Zm-5.928-2.678c-2.062 0-4.289.766-5.927 2.677l9.111 7.81a4.406 4.406 0 0 1-1.62 1.182 4.033 4.033 0 0 1-1.564.331v-12Zm-5.927 2.677c-.909 1.06-1.36 2.221-1.594 2.922a17.024 17.024 0 0 0-.593 2.45l11.822 2.055c.039-.221.074-.392.104-.518.015-.062.027-.109.037-.142l.01-.037.004-.013-.005.015a2.595 2.595 0 0 1-.102.23c-.075.15-.25.472-.572.848l-9.111-7.81Zm-2.187 5.371c-.31 1.784-.421 4.005-.421 6.474h12c0-2.242.11-3.652.243-4.418l-11.822-2.056Zm-.421 6.474c0 2.481.112 4.705.414 6.515l11.836-1.972c-.141-.85-.25-2.313-.25-4.543h-12Zm.417 6.536c.139.817.322 1.66.579 2.456.229.71.652 1.825 1.482 2.863l9.371-7.497c.144.18.25.341.325.465.076.125.129.228.163.3.066.138.088.211.079.185-.006-.02-.029-.094-.061-.234a9.253 9.253 0 0 1-.108-.552l-11.83 2.014Zm32.376 7.1a5.675 5.675 0 0 1 2.18-4.496c.642-.495 1.186-.673 1.233-.69.16-.054.007.013-.729.11l1.561 11.898c.954-.126 2.069-.315 3.074-.66a7.65 7.65 0 0 0 2.185-1.153c.844-.65 2.496-2.294 2.496-5.01h-12Zm2.684-5.077c-1.43.188-2.873.282-4.333.282v12a45.3 45.3 0 0 0 5.894-.383l-1.561-11.899Zm-4.333.282c-.751 0-1.255-.022-1.559-.05-.15-.013-.195-.022-.161-.016a4.102 4.102 0 0 1 .611.183l-4.35 11.184c1.083.42 2.192.545 2.841.603.79.07 1.679.096 2.618.096V30Zm-.999.16c.432.179 1.233.601 1.933 1.506a5.142 5.142 0 0 1 1.075 3.128h-12a6.86 6.86 0 0 0 1.429 4.21c.935 1.21 2.09 1.881 2.994 2.253l4.569-11.096Zm3.008 4.634V8.064h-12v26.73h12Zm0-26.73c0 1.17-.395 2.23-.985 3.038a4.465 4.465 0 0 1-1.371 1.252c-.456.26-.594.199.06.088L211.183.61c-1.148.195-2.637.543-3.993 1.315-1.414.805-3.708 2.747-3.708 6.14h12Zm-2.311 4.38c1.386-.23 3.329-.375 5.914-.375v-12c-2.957 0-5.615.16-7.887.539l1.973 11.837Zm5.914-.375c2.799 0 4.476.014 5.156.038l.414-11.993c-.928-.032-2.826-.045-5.57-.045v12Zm5.363.041c.641 0 1.456.033 2.461.108l.898-11.966a45.458 45.458 0 0 0-3.359-.142v12Zm2.461.108c.429.033.756.072.994.11.246.038.341.067.327.063L231.724.91c-1.247-.38-2.619-.562-3.917-.659l-.898 11.966Zm1.388.193c.46.134 1.008.321 1.648.573l4.387-11.17a31.462 31.462 0 0 0-2.675-.923l-3.36 11.52Zm1.714.598c.151.058-.128-.015-.486-.418l8.969-7.972c-1.245-1.4-2.772-2.278-4.228-2.83l-4.255 11.22Zm-.371-.292c.124.132.32.373.57.772l10.176-6.36a16.893 16.893 0 0 0-2.008-2.636l-8.738 8.224Zm.577.783c-.07-.11-.011-.066.062.268.074.334.141.868.141 1.654h12c0-2.751-.44-5.754-2.041-8.303l-10.162 6.38Zm.203 1.922c0 1.53-.263 2.428-.508 2.927l10.772 5.288c1.252-2.55 1.736-5.365 1.736-8.215h-12Zm-.528 2.968c-.31.643-.583.86-.725.95l6.442 10.124c2.297-1.462 3.963-3.518 5.095-5.868l-10.812-5.206Zm-2.568 9.23c1.545 2.432 2.618 4.287 3.283 5.617.333.667.515 1.104.601 1.35.12.344-.039.044-.039-.624h12c0-1.347-.359-2.554-.637-3.347-.312-.89-.729-1.818-1.192-2.745-.929-1.857-2.246-4.104-3.888-6.687l-10.128 6.435Zm3.845 6.343c0-.889.237-1.759.669-2.51a4.631 4.631 0 0 1 1.23-1.408c.582-.433.953-.464.605-.377-.634.158-2.086.332-4.694.332v12c2.852 0 5.494-.165 7.59-.687 1.017-.253 2.412-.707 3.676-1.65 1.431-1.068 2.924-2.99 2.924-5.7h-12ZM228.979 30c-.713 0-1.247-.016-1.627-.04-.427-.027-.484-.054-.327-.019l-2.66 11.702c1.345.306 3.062.357 4.614.357V30Zm-1.954-.059c.337.077.963.278 1.629.8a4.746 4.746 0 0 1 1.535 2.14l-11.316 3.993c1.028 2.914 3.452 4.305 5.492 4.769l2.66-11.702Zm3.228 3.131-2.702-8.564-11.444 3.611 2.702 8.564 11.444-3.61Zm-8.072-12.748-.707-.041-.704 11.979.707.042.704-11.98Zm-7.059 5.948v8.522h12v-8.522h-12Zm6-.401h1.081v-12h-1.081v12Zm1.081 0c2.64 0 5.24-1.184 6.852-3.686 1.32-2.049 1.559-4.357 1.559-6.056h-12c0 .32-.027.426-.017.377.01-.045.085-.377.371-.821a4.038 4.038 0 0 1 1.533-1.378 3.761 3.761 0 0 1 1.702-.437v12Zm8.411-9.742c0-1.629-.215-4.358-2.076-6.567l-9.178 7.73c-.541-.642-.702-1.212-.738-1.36-.039-.157-.008-.123-.008.197h12Zm-1.956-6.42c-1.287-1.631-3.383-3.072-6.164-3.072v12a4.39 4.39 0 0 1-2.083-.53 3.795 3.795 0 0 1-1.171-.962l9.418-7.436Zm-6.164-3.072h-1.372v12h1.372v-12Zm-7.372 6v7.233h12v-7.233h-12ZM35.925 132.296c0-2.137 1.238-3.395 1.733-3.791.439-.351.67-.368.268-.232-.748.253-2.298.582-4.946.867l1.285 11.931c2.887-.31 5.488-.748 7.508-1.431.981-.332 2.25-.86 3.38-1.765 1.188-.949 2.772-2.803 2.772-5.579h-12Zm-2.954-3.154c-5.256.574-10.231.858-14.93.858v12c5.179 0 10.592-.312 16.234-.93l-1.304-11.928ZM18.04 130c-2.37 0-4.2-.072-5.54-.198-1.49-.139-1.9-.304-1.754-.244l-4.569 11.096c1.594.656 3.503.937 5.207 1.097 1.853.172 4.089.249 6.656.249v-12Zm-7.294-.442c-.056-.023.38.141.835.73.516.667.71 1.431.71 2.008h-12c0 1.855.555 3.725 1.794 5.329 1.18 1.526 2.7 2.456 4.092 3.029l4.569-11.096Zm1.544 2.738V51.323h-12v80.973h12Zm0-80.973c0-.052.006.007-.033.142a1.62 1.62 0 0 1-.227.466c-.236.335-.41.331-.081.192L7.274 41.072c-1.885.797-3.72 2.05-5.062 3.96-1.366 1.944-1.92 4.14-1.92 6.291h12Zm-.341.8c.955-.404 3.974-.93 10.178-.93v-12c-6.056 0-11.382.41-14.854 1.879l4.676 11.051Zm10.178-.93h47.384v-12H22.128v12Zm47.384 0c-.72 0-1.458-.173-2.127-.519a4.242 4.242 0 0 1-1.32-1.046c-.433-.523-.442-.835-.325-.41.225.815.454 2.584.454 5.681h12c0-3.374-.219-6.458-.888-8.878-.33-1.193-.897-2.719-2.002-4.051-1.253-1.512-3.238-2.777-5.792-2.777v12Zm-3.318 3.706c0 6.225-.425 10.541-1.098 13.232l11.641 2.91c1.03-4.12 1.457-9.595 1.457-16.142h-12ZM65.07 68.237a13.59 13.59 0 0 1-.423 1.502c-.13.36-.205.476-.181.439.013-.022.238-.392.782-.786a4.476 4.476 0 0 1 2.603-.824v12c3.672 0 5.845-2.493 6.835-4.101 1.015-1.65 1.64-3.636 2.077-5.531L65.07 68.237Zm3.077.338L42.22 67.298l-.59 11.985 25.926 1.277.59-11.985ZM35.925 73.29v8.685h12v-8.684h-12Zm6.27 14.68c11.346-.513 18.79-.761 22.463-.761v-12c-3.989 0-11.7.263-23.004.772l.541 11.988Zm22.463-.761c-.48 0-1.337-.153-2.151-.804-.757-.605-.986-1.251-1.021-1.363l11.454-3.58c-.46-1.473-1.329-3.141-2.937-4.427-1.665-1.333-3.587-1.826-5.345-1.826v12Zm-3.063-1.85c-.022-.058.11.323.22 1.473.103 1.06.164 2.492.164 4.339h12c0-3.809-.202-7.503-1.148-10.025l-11.236 4.213Zm.384 5.812c0 3.383-.375 6.62-1.114 9.722l11.674 2.779c.964-4.05 1.44-8.221 1.44-12.501h-12Zm-1.106 9.69a12.397 12.397 0 0 1-.463 1.531c-.14.361-.222.473-.195.434.023-.035.248-.359.76-.687a4.03 4.03 0 0 1 2.15-.62v12c3.448 0 5.747-2.092 7-3.925 1.19-1.745 1.912-3.864 2.406-5.89l-11.658-2.843Zm2.47.662-21.202-.767-.433 11.993 21.201.766.434-11.992Zm-27.418 5.23v25.543h12v-25.543h-12Zm117.875-6.386c0 11.096-3.158 18.393-8.532 23.054l7.863 9.065c8.76-7.599 12.669-18.694 12.669-32.119h-12Zm-8.528 23.051c-5.492 4.756-14.038 7.604-26.597 7.604v12c14.177 0 25.981-3.197 34.452-10.532l-7.855-9.072Zm-26.597 7.604c-12.449 0-21.085-2.838-26.779-7.651l-7.746 9.165c8.61 7.278 20.409 10.486 34.525 10.486v-12Zm-26.748-7.624c-5.446-4.668-8.633-11.958-8.633-23.031h-12c0 13.448 3.966 24.55 12.824 32.142l7.81-9.111Zm-8.633-23.031V53.494h-12v46.873h12Zm0-46.873c0 1.445-.873 1.981-.453 1.644.44-.353 1.513-.987 3.624-1.74l-4.036-11.302c-2.658.95-5.16 2.126-7.105 3.688-1.964 1.578-4.03 4.136-4.03 7.71h12Zm3.14-.086c4.081-1.432 9.005-2.215 14.871-2.215v-12c-6.905 0-13.22.919-18.845 2.892l3.973 11.323Zm14.871-2.215c2.226 0 3.711.22 4.626.489.918.27.865.47.611.146l9.45-7.396c-1.786-2.282-4.265-3.552-6.668-4.26-2.405-.71-5.135-.98-8.019-.98v12Zm5.098.45c.366.506.523.818.577.947.054.13-.052-.061-.052-.5h12c0-2.985-1.42-5.567-2.796-7.473l-9.729 7.026Zm.525.446v38.06h12V52.09h-12Zm0 38.06c0 9.514.318 16.545 1.157 20.426l11.729-2.536c-.523-2.42-.886-8.16-.886-17.89h-12Zm1.201 20.613c.541 2.167 1.529 4.48 3.393 6.294 2.007 1.953 4.544 2.849 7.153 2.849v-12c.054 0 .254.01.53.117.284.11.521.273.685.433.151.147.177.229.133.141-.048-.094-.147-.323-.253-.744l-11.641 2.91Zm10.546 9.143c2.556 0 5.127-.853 7.148-2.875 1.877-1.877 2.773-4.256 3.206-6.419l-11.767-2.353c-.164.818-.311.673.076.287.212-.212.492-.4.804-.52.297-.114.501-.12.533-.12v12Zm10.327-9.169c.85-3.823 1.165-10.974 1.165-20.715h-12c0 10.014-.366 15.805-.879 18.112l11.714 2.603Zm1.165-20.715V53.495h-12v36.528h12Zm0-36.527c0 1.445-.873 1.981-.454 1.644.44-.353 1.514-.987 3.624-1.74l-4.036-11.302c-2.658.95-5.16 2.126-7.104 3.688-1.965 1.578-4.03 4.136-4.03 7.71h12Zm3.139-.086c4.089-1.434 8.973-2.215 14.744-2.215v-12c-6.83 0-13.1.921-18.717 2.892l3.973 11.323Zm14.744-2.215c2.378 0 3.957.223 4.92.5.991.285.82.473.473.003l9.65-7.132c-1.795-2.428-4.393-3.71-6.807-4.404-2.443-.702-5.249-.967-8.236-.967v12Zm5.225.265c.337.505.488.827.547.977.059.153-.022.016-.022-.346h12c0-2.842-1.254-5.358-2.54-7.287l-9.985 6.656Zm.525.631v48.278h12V52.089h-12Zm41.967 80.207c0-2.392 1.483-3.69 1.88-3.991.417-.316.621-.328.215-.191-.744.252-2.249.587-4.782.914l1.536 11.901c2.746-.354 5.2-.807 7.096-1.449.914-.31 2.107-.796 3.184-1.612 1.058-.802 2.871-2.627 2.871-5.572h-12Zm-2.699-3.267c-4.938.648-9.871.971-14.802.971v12c5.457 0 10.912-.358 16.362-1.073l-1.56-11.898Zm-14.802.971c-2.504 0-4.436-.073-5.849-.2-1.58-.141-1.997-.312-1.828-.242l-4.569 11.096c1.617.666 3.583.942 5.324 1.098 1.908.172 4.233.248 6.922.248v-12Zm-7.677-.442c-.056-.023.38.141.835.73a3.37 3.37 0 0 1 .709 2.008h-12c0 1.855.556 3.725 1.795 5.329 1.179 1.526 2.7 2.456 4.092 3.029l4.569-11.096Zm1.544 2.738V53.877h-12v78.419h12Zm0-78.419c0 1.471-.891 1.991-.412 1.604.48-.387 1.605-1.052 3.766-1.849l-4.148-11.26c-2.692.992-5.207 2.2-7.154 3.77-1.947 1.572-4.052 4.136-4.052 7.735h12Zm3.323-.233c4.176-1.512 9.044-2.324 14.688-2.324v-12c-6.787 0-13.072.977-18.773 3.04l4.085 11.284Zm14.688-2.324c2.143 0 3.43.088 4.069.186l1.825-11.86c-1.575-.243-3.609-.326-5.894-.326v12Zm4.108.192c.364.053.488.148.574.225.128.115.457.475.8 1.405l11.26-4.149c-1.789-4.855-5.391-8.545-10.888-9.354l-1.746 11.873Zm1.38 1.648 12.261 32.951 11.247-4.185-12.261-32.95-11.247 4.184Zm17.885 36.859h.511v-12h-.511v12Zm6.511-6V53.877h-12V84.02h12Zm0-30.142c0 1.471-.892 1.991-.412 1.604.479-.387 1.604-1.052 3.766-1.849l-4.149-11.26c-2.692.992-5.207 2.2-7.154 3.77-1.946 1.572-4.051 4.136-4.051 7.735h12Zm3.354-.245c4.07-1.5 8.882-2.312 14.529-2.312v-12c-6.785 0-13.041.976-18.678 3.052l4.149 11.26Zm14.529-2.312c2.363 0 3.917.233 4.853.514.946.283.784.466.468.02l9.792-6.937c-1.763-2.49-4.352-3.84-6.812-4.577-2.469-.741-5.3-1.02-8.301-1.02v12Zm5.315.526c.296.418.416.677.456.78.037.096-.021-.012-.021-.281h12c0-2.9-1.224-5.426-2.631-7.42l-9.804 6.92Zm.435.499v79.951h12V52.345h-12Zm0 79.951c0-2.392 1.483-3.69 1.88-3.991.418-.316.621-.328.215-.191-.744.252-2.249.587-4.782.914l1.536 11.901c2.747-.354 5.201-.807 7.096-1.449.914-.31 2.107-.796 3.185-1.612 1.057-.802 2.87-2.627 2.87-5.572h-12Zm-2.699-3.267c-4.889.641-10.371.971-16.462.971v12c6.512 0 12.524-.352 18.023-1.073l-1.561-11.898ZM224.5 130c-2.941 0-4.801-.2-5.829-.444-.514-.122-.532-.19-.303-.051.248.15 1.081.735 1.545 1.994l-11.26 4.149c.762 2.067 2.244 3.36 3.493 4.117 1.229.746 2.563 1.184 3.752 1.466 2.378.565 5.328.769 8.602.769v-12Zm-4.605 1.452-11.877-31.419-11.225 4.243 11.878 31.419 11.224-4.243Zm-17.49-35.297h-.638v12h.638v-12Zm-6.638 6v30.141h12v-30.141h-12ZM25.47 172.794c0-2.578 1.594-4.054 2.214-4.524.64-.485 1.178-.657 1.217-.67.146-.049-.024.02-.776.117l1.535 11.901c.966-.125 2.085-.312 3.09-.652a7.683 7.683 0 0 0 2.184-1.133c.834-.633 2.536-2.28 2.536-5.039h-12Zm2.642-5.076a32.977 32.977 0 0 1-4.291.282v12c1.954 0 3.905-.128 5.852-.384l-1.56-11.898Zm-4.291.282c-.753 0-1.25-.022-1.542-.049-.145-.013-.177-.021-.127-.012.028.005.1.02.208.049.102.028.28.081.503.173l-4.57 11.096c1.13.465 2.292.59 2.913.646.788.071 1.677.097 2.615.097v-12Zm-.958.161a4.77 4.77 0 0 1 1.933 1.505 5.143 5.143 0 0 1 1.076 3.128h-12a6.86 6.86 0 0 0 1.429 4.21c.935 1.209 2.09 1.881 2.993 2.253l4.569-11.096Zm3.009 4.633V147.27h-12v25.524h12Zm0-25.524c0 2.188-1.301 3.398-1.64 3.671-.338.274-.441.24.084.047l-4.149-11.26c-1.055.388-2.343.964-3.471 1.875-1.129.911-2.824 2.785-2.824 5.667h12Zm-1.588 3.729c.845-.306 1.952-.514 3.403-.514v-12c-2.595 0-5.118.373-7.488 1.231l4.085 11.283Zm3.403-.514c.29 0 .498.005.639.013.154.007.161.014.07 0l1.825-11.86c-.829-.128-1.742-.153-2.534-.153v12Zm.748.019a3.756 3.756 0 0 1-1.925-.916c-.56-.503-.777-.997-.836-1.158l11.26-4.149c-.985-2.673-3.209-5.128-6.753-5.649l-1.746 11.872Zm-2.755-2.056 3.991 10.725 11.247-4.185-3.991-10.725-11.247 4.185Zm9.614 14.633h.167v-12h-.166v12Zm6.167-6v-9.811h-12v9.811h12Zm0-9.811c0 2.188-1.301 3.398-1.64 3.671-.338.274-.441.24.084.047l-4.149-11.26c-1.055.388-2.342.964-3.47 1.875-1.13.911-2.825 2.785-2.825 5.667h12Zm-1.556 3.718c.796-.294 1.875-.503 3.33-.503v-12c-2.593 0-5.116.372-7.479 1.243l4.149 11.26Zm3.33-.503c.553 0 .628.06.416-.004-.202-.061-1.183-.395-1.987-1.531l9.792-6.936c-1.275-1.8-3.045-2.634-4.356-3.027-1.321-.396-2.673-.502-3.865-.502v12Zm-1.577-1.543c-.052-.074-.599-.851-.599-2.171h12c0-2.096-.879-3.732-1.597-4.749l-9.804 6.92Zm-.599-2.171v26.023h12v-26.023h-12Zm0 26.023c0-2.578 1.594-4.054 2.214-4.524.64-.485 1.178-.657 1.217-.67.146-.049-.024.02-.776.117l1.535 11.901c.967-.125 2.085-.312 3.09-.652a7.683 7.683 0 0 0 2.184-1.133c.834-.633 2.536-2.28 2.536-5.039h-12Zm2.643-5.076c-1.387.182-2.992.282-4.832.282v12c2.26 0 4.397-.122 6.392-.384l-1.56-11.898ZM38.87 168c-.845 0-1.083-.064-.963-.035.06.014.499.117 1.065.46a5.315 5.315 0 0 1 2.202 2.711l-11.26 4.148c.661 1.795 1.924 2.849 2.836 3.402a8.27 8.27 0 0 0 2.385.954c1.229.292 2.556.36 3.735.36v-12Zm2.286 3.088-3.866-10.226-11.224 4.243 3.866 10.227 11.224-4.244Zm-9.478-14.104h-.208v12h.208v-12Zm-6.208 6v9.81h12v-9.81h-12ZM72.308 168H54.682v12h17.626v-12Zm-17.626 0c-.27 0-.495-.005-.68-.013a6.9 6.9 0 0 1-.391-.026c-.083-.009-.076-.012-.003.003a4.028 4.028 0 0 1 .615.197l-4.569 11.096c1.027.423 2.044.568 2.69.637.742.078 1.537.106 2.338.106v-12Zm-.459.161a4.77 4.77 0 0 1 1.933 1.505 5.143 5.143 0 0 1 1.076 3.128h-12a6.86 6.86 0 0 0 1.429 4.21c.935 1.209 2.09 1.881 2.993 2.253l4.569-11.096Zm3.009 4.633V146.48h-12v26.314h12Zm0-26.314a4.3 4.3 0 0 1-.666 2.243 4.363 4.363 0 0 1-1.79 1.632L49.6 139.529c-1.172.561-2.363 1.474-3.224 2.858-.856 1.378-1.143 2.832-1.143 4.093h12Zm-2.544 3.916c-.256.118-.429.161-.46.169-.04.01-.009 0 .112-.016a11.58 11.58 0 0 1 1.381-.064v-12c-1.709 0-4.07.102-6.033 1.003l5 10.908Zm1.033.089h16.712v-12H55.721v12Zm16.712 0a5.503 5.503 0 0 1-4.078-1.805c-.72-.801-.959-1.559-1.014-1.744-.113-.375-.035-.358-.035.459h12c0-1.124-.068-2.562-.471-3.907-.201-.67-.621-1.792-1.56-2.835a6.495 6.495 0 0 0-4.842-2.168v12Zm-5.127-3.09c0 1.753-.124 2.659-.204 2.988l11.66 2.836c.418-1.721.544-3.753.544-5.824h-12Zm-.195 2.951c-.06.238-.001-.16.392-.751a5.335 5.335 0 0 1 4.431-2.297v12c3.01 0 4.804-1.922 5.554-3.046.726-1.089 1.075-2.236 1.265-2.996l-11.642-2.91Zm4.823-3.048c-1.523 0-4.334-.159-8.6-.52l-1.009 11.958c4.271.36 7.53.562 9.61.562v-12Zm-15.104 5.459v2.785h12v-2.785h-12Zm6.243 8.781c4.13-.168 6.678-.245 7.78-.245v-12c-1.391 0-4.193.089-8.266.254l.486 11.991Zm7.78-.245a5.224 5.224 0 0 1-3.192-1.1 4.821 4.821 0 0 1-1.48-1.882c-.3-.697-.205-1.026-.205-.399h12c0-1.118-.093-2.757-.766-4.328-.364-.849-1.016-1.957-2.182-2.863a6.772 6.772 0 0 0-4.175-1.428v12Zm-4.877-3.381c0 .709-.032 1.242-.076 1.624-.045.399-.092.525-.074.469l11.385 3.795c.61-1.834.765-3.931.765-5.888h-12Zm-.184 2.201a2.22 2.22 0 0 1 .131-.311 4.06 4.06 0 0 1 .581-.853 5.142 5.142 0 0 1 3.85-1.716v12c2.297 0 4.075-1.117 5.181-2.381.97-1.108 1.45-2.329 1.71-3.16l-11.454-3.579Zm4.695-2.878-7.524-.167-.266 11.997 7.525.167.265-11.997Zm-13.657 5.832v2.66h12v-2.66h-12Zm6.447 8.644c4.838-.362 7.954-.524 9.53-.524v-12c-2.082 0-5.618.198-10.424.557l.894 11.967Zm9.53-.524a5.506 5.506 0 0 1-4.078-1.804c-.72-.801-.959-1.56-1.014-1.744-.113-.375-.035-.359-.035.458h12c0-1.123-.068-2.562-.471-3.907-.201-.669-.621-1.791-1.56-2.835-1.094-1.215-2.78-2.168-4.842-2.168v12Zm-5.127-3.09c0 1.801-.127 2.68-.195 2.951l11.642 2.911c.43-1.724.553-3.783.553-5.862h-12Zm-.195 2.951c-.06.238-.001-.16.392-.75A5.333 5.333 0 0 1 72.308 168v12c3.01 0 4.804-1.921 5.554-3.046.726-1.089 1.075-2.236 1.265-2.995l-11.642-2.911Zm21.619 1.954c0-3.049 2.157-4.547 2.586-4.823.346-.224.633-.351.782-.411.16-.066.273-.1.315-.112.073-.021-.162.045-.934.132l1.347 11.925c.946-.107 2-.262 2.932-.533a7.789 7.789 0 0 0 2.063-.918c.644-.415 2.909-2.058 2.909-5.26h-12Zm2.835-5.223a46.162 46.162 0 0 1-4.526.221v12c1.912 0 3.813-.093 5.7-.278l-1.174-11.943Zm-4.526.221c-.78 0-1.332-.016-1.695-.04-.18-.011-.267-.022-.283-.024-.047-.006.133.013.429.1l-3.386 11.512c.924.272 1.888.35 2.473.388.718.046 1.551.064 2.462.064v-12Zm-1.136.174a4.858 4.858 0 0 1 1.984 1.431 5.299 5.299 0 0 1 1.244 3.397h-12c0 1.523.51 3.066 1.577 4.333.978 1.16 2.142 1.76 2.982 2.075l4.213-11.236Zm3.228 4.828v-17.875h-12v17.875h12Zm-6-23.875h-5.778v12h5.778v-12Zm-5.778 0a5.485 5.485 0 0 1 4.539 2.34c.393.58.483.997.44.847l-11.538 3.297c.179.626.511 1.626 1.168 2.594.62.915 2.346 2.922 5.391 2.922v-12Zm4.98 3.187c.021.077-.013-.018-.047-.371a15.37 15.37 0 0 1-.055-1.431h-12c0 1.681.107 3.504.563 5.099l11.538-3.297Zm-.102-1.802c0-1.135.123-1.974.287-2.578l-11.577-3.157c-.5 1.835-.71 3.766-.71 5.735h12Zm.296-2.611c.09-.339.058-.011-.326.528a5.1 5.1 0 0 1-4.141 2.056v-12c-2.9 0-4.754 1.747-5.638 2.99-.827 1.163-1.248 2.427-1.49 3.334l11.595 3.092Zm-4.467 2.584h22.49v-12h-22.49v12Zm22.49 0a5.426 5.426 0 0 1-2.646-.693 5.27 5.27 0 0 1-1.717-1.529 4.531 4.531 0 0 1-.586-1.106 2.884 2.884 0 0 1-.126-.454l11.813-2.109c-.136-.762-.448-2.063-1.336-3.306-1.075-1.504-2.951-2.803-5.402-2.803v12Zm-5.036-3.579c.033.151.116.771.116 2.11h12.001c0-1.599-.083-3.224-.383-4.625l-11.734 2.515Zm.116 2.11c0 1.053-.109 1.977-.299 2.79l11.684 2.734c.42-1.792.616-3.639.616-5.524h-12Zm-.299 2.79c-.094.4-.085.121.244-.396a5.171 5.171 0 0 1 4.351-2.283v12c3.165 0 5.009-2.077 5.764-3.26.746-1.168 1.114-2.424 1.325-3.327l-11.684-2.734Zm4.595-2.679h-5.196v12h5.196v-12Zm-11.196 6v17.875h12v-17.875h-12ZM116.777 168c-.261 0-.476-.005-.648-.012a5.853 5.853 0 0 1-.341-.024l-.022-.002a3.282 3.282 0 0 1 .4.101c.126.041.31.106.53.209l-5.075 10.874c1.119.522 2.236.677 2.841.745.738.081 1.529.109 2.315.109v-12Zm-.081.272a4.425 4.425 0 0 1 1.448 1.091c.417.477.662.962.799 1.351l-11.315 3.994c.649 1.841 1.98 3.499 3.993 4.438l5.075-10.874Zm2.231 2.396-9.187-25.359-11.283 4.088 9.187 25.358 11.283-4.087Zm-8.829-23.315a5.38 5.38 0 0 1-1.279 3.517c-.427.493-.8.717-.822.731-.058.036.201-.12 1.046-.418l-3.986-11.319c-1.123.396-2.339.891-3.381 1.537a8.36 8.36 0 0 0-1.93 1.614c-.668.773-1.648 2.254-1.648 4.338h12Zm-1.08 3.839a12.27 12.27 0 0 1 4.06-.707v-12c-2.723 0-5.396.468-7.996 1.371l3.936 11.336Zm4.06-.707c.17 0 .298.006.388.014.045.004.078.008.101.012l.032.005a1.434 1.434 0 0 1-.151-.046 2.512 2.512 0 0 1-.426-.205 3.653 3.653 0 0 1-1.211-1.192 3.571 3.571 0 0 1-.545-1.529l11.938-1.214c-.271-2.667-1.707-4.997-4.084-6.4-2.023-1.193-4.265-1.445-6.042-1.445v12Zm-1.809-2.908 1.413 13.178 11.932-1.28-1.413-13.178-11.932 1.28Zm7.379 18.538h.582v-12h-.582v12Zm6.559-5.472 1.164-13.178-11.954-1.056-1.164 13.178 11.954 1.056Zm1.166-13.199a4.093 4.093 0 0 1-.909 2.223c-.498.608-1.001.859-1.16.929-.153.067-.122.026.211-.024.319-.047.804-.087 1.491-.087v-12c-2.091 0-4.442.212-6.508 1.115-2.371 1.036-4.779 3.252-5.082 6.831l11.957 1.013Zm-.367 3.041c.451 0 .586.034.509.018a2.574 2.574 0 0 1-.466-.151 4.278 4.278 0 0 1-1.072-.654l7.629-9.263c-1.288-1.06-2.7-1.482-3.637-1.678-1.006-.21-2.028-.272-2.963-.272v12Zm-.859-.652a4.022 4.022 0 0 1-1.078-1.27 3.906 3.906 0 0 1-.463-1.498l11.951-1.087c-.202-2.22-1.268-4.261-3.121-5.678l-7.289 9.533Zm-1.535-2.709 1.371 13.594 11.94-1.205-1.372-13.594-11.939 1.205Zm7.341 18.991h.582v-12h-.582v12Zm6.562-5.509 1.081-13.178-11.96-.981-1.081 13.178 11.96.981Zm1.069-13.051c-.21 2.036-1.511 3.083-1.939 3.36-.371.239-.456.179.147.04l-2.698-11.693c-1.199.276-2.656.728-3.968 1.578-1.371.887-3.184 2.64-3.478 5.48l11.936 1.235Zm-1.811 3.404a18.342 18.342 0 0 1 4.074-.474v-12c-2.246 0-4.493.263-6.734.772l2.66 11.702Zm4.074-.474c.308 0 .545.011.721.026.178.016.265.033.278.036.018.004-.089-.017-.276-.097a3.621 3.621 0 0 1-.886-.55l7.643-9.251c-1.341-1.108-2.837-1.592-3.948-1.832-1.164-.251-2.376-.332-3.532-.332v12Zm-.066-.506c-.089-.071-1.278-1.067-1.278-3.042h12c0-3.138-1.854-5.243-3.273-6.367l-7.449 9.409Zm-.95-4.999-8.896 25.774 11.343 3.915 8.897-25.774-11.344-3.915Zm-8.879 25.725c.606-1.707 1.819-2.475 2.219-2.694.428-.234.66-.252.439-.206-.419.088-1.395.195-3.156.195v12c2.037 0 3.985-.108 5.616-.45.805-.168 1.844-.455 2.86-1.011.99-.541 2.573-1.685 3.331-3.821l-11.309-4.013Zm-.498-2.705c-.201 0-.358-.004-.476-.01a2.75 2.75 0 0 1-.19-.015c-.016-.002.065.007.213.045.077.019.188.05.325.098.135.048.316.12.525.224l-5.366 10.734c1.094.546 2.17.725 2.788.803.72.092 1.468.121 2.181.121v-12Zm.397.342a4.572 4.572 0 0 1 1.533 1.248c.415.524.636 1.041.75 1.428l-11.512 3.386c.54 1.837 1.781 3.631 3.863 4.672l5.366-10.734Zm2.276 2.651-2.162-7.233-11.497 3.436 2.161 7.233 11.498-3.436Zm-7.911-11.515h-.498v12h.498v-12Zm-6.238 4.252-2.203 7.233 11.479 3.497 2.203-7.234-11.479-3.496Zm-2.226 7.308c.507-1.746 1.688-2.617 2.191-2.917.491-.292.799-.334.635-.297-.308.069-1.157.176-2.801.176v12c1.932 0 3.826-.108 5.431-.468.792-.178 1.849-.489 2.88-1.103 1.043-.622 2.557-1.869 3.188-4.045l-11.524-3.346Zm44.438-2.664c-1.965 0-3.433-.18-4.49-.444l-2.91 11.641c2.269.568 4.764.803 7.4.803v-12Zm-4.374-.414c-.804-.218-1.58-.603-2.354-1.223l-7.496 9.371c1.997 1.597 4.242 2.764 6.709 3.433l3.141-11.581Zm-2.405-1.263c-.549-.43-1.896-2.181-1.896-7.87h-12c0 6.726 1.453 13.372 6.502 17.322l7.394-9.452Zm-1.896-7.87c0-2.047.296-3.557.721-4.659l-11.196-4.318c-1.072 2.778-1.525 5.813-1.525 8.977h12Zm.694-4.59c.473-1.184 1.009-1.847 1.48-2.241l-7.701-9.203c-2.245 1.878-3.843 4.292-4.921 6.988l11.142 4.456Zm1.471-2.233c1.356-1.13 3.347-1.935 6.51-1.935v-12c-5.318 0-10.227 1.412-14.192 4.716l7.682 9.219Zm6.51-1.935c1.858 0 3.262.167 4.287.414l2.816-11.665c-2.189-.528-4.582-.749-7.103-.749v12Zm4.31.42c.843.2 1.676.57 2.521 1.171l6.957-9.778c-2.038-1.45-4.281-2.493-6.708-3.069l-2.77 11.676Zm2.481 1.142c.557.403 1.883 1.935 1.883 7.196h12c0-6.601-1.583-13.107-6.847-16.916l-7.036 9.72Zm1.883 7.196c0 4.441-1.101 6.475-2.099 7.431l8.301 8.666c4.267-4.087 5.798-9.896 5.798-16.097h-12Zm-2.099 7.431c-1.264 1.211-3.215 2.116-6.575 2.116v12c5.675 0 10.873-1.616 14.876-5.45l-8.301-8.666Zm-12.503 4.912c1.638 1.911 3.866 2.677 5.928 2.677v-12c.378 0 .935.065 1.564.331a4.435 4.435 0 0 1 1.62 1.183l-9.112 7.809Zm5.928 2.677c2.062 0 4.289-.766 5.927-2.677l-9.111-7.809a4.427 4.427 0 0 1 1.62-1.183 4.05 4.05 0 0 1 1.564-.331v12Zm6.057-2.833c.83-1.038 1.254-2.154 1.482-2.863.257-.796.44-1.639.579-2.456l-11.83-2.014a9.288 9.288 0 0 1-.108.552c-.032.14-.055.213-.061.234-.009.026.013-.047.079-.185a3.28 3.28 0 0 1 .163-.3c.075-.124.181-.284.325-.465l9.371 7.497Zm2.064-5.34c.302-1.81.415-4.034.415-6.515h-12c0 2.23-.11 3.692-.251 4.543l11.836 1.972Zm.415-6.515c0-2.469-.111-4.69-.422-6.474l-11.822 2.056c.133.766.244 2.176.244 4.418h12Zm-.422-6.474c-.14-.807-.327-1.65-.593-2.449-.234-.701-.685-1.861-1.594-2.922l-9.111 7.81a4.214 4.214 0 0 1-.572-.847 2.605 2.605 0 0 1-.102-.231l-.005-.015.004.013.011.037.036.142c.03.126.065.297.104.518l11.822-2.056Zm-2.187-5.371c-1.638-1.911-3.865-2.677-5.927-2.677v12c-.378 0-.935-.064-1.564-.331a4.413 4.413 0 0 1-1.62-1.182l9.111-7.81Zm-5.927-2.677c-2.062 0-4.29.766-5.928 2.677l9.112 7.81a4.413 4.413 0 0 1-1.62 1.182 4.031 4.031 0 0 1-1.564.331v-12Zm-5.928 2.677c-.908 1.061-1.36 2.221-1.593 2.922a17.048 17.048 0 0 0-.594 2.449l11.823 2.056c.038-.221.074-.392.104-.518.014-.062.027-.109.036-.142l.011-.037a.203.203 0 0 0 .004-.013l-.005.015-.017.043c-.016.038-.043.103-.085.188-.076.15-.251.471-.572.847l-9.112-7.81Zm-2.187 5.371c-.31 1.784-.421 4.005-.421 6.474h12c0-2.242.111-3.652.244-4.418l-11.823-2.056Zm-.421 6.474c0 2.481.113 4.705.414 6.515l11.837-1.972c-.142-.851-.251-2.313-.251-4.543h-12Zm.418 6.536a17.9 17.9 0 0 0 .578 2.456c.229.709.653 1.825 1.483 2.863l9.37-7.497a3.867 3.867 0 0 1 .489.765c.066.138.087.211.079.185a2.872 2.872 0 0 1-.061-.234 9.288 9.288 0 0 1-.108-.552l-11.83 2.014Zm31.96 7.099c0-2.535 1.546-4.007 2.179-4.495.643-.495 1.186-.673 1.234-.689.16-.055.007.012-.729.108l1.56 11.898c.955-.125 2.07-.314 3.075-.66a7.65 7.65 0 0 0 2.184-1.151c.845-.651 2.497-2.295 2.497-5.011h-12Zm2.684-5.076c-1.43.188-2.874.282-4.333.282v12c1.977 0 3.942-.128 5.893-.384l-1.56-11.898Zm-4.333.282c-.752 0-1.255-.022-1.559-.049-.15-.014-.195-.023-.162-.017.02.003.081.015.173.039.088.023.242.068.438.144l-4.349 11.184c1.082.421 2.192.545 2.84.603.791.07 1.68.096 2.619.096v-12Zm-1 .161a4.77 4.77 0 0 1 1.933 1.505 5.142 5.142 0 0 1 1.076 3.128h-12c0 1.424.434 2.921 1.429 4.21.935 1.209 2.09 1.881 2.993 2.253l4.569-11.096Zm3.009 4.633v-26.73h-12v26.73h12Zm0-26.73a5.17 5.17 0 0 1-.986 3.038 4.455 4.455 0 0 1-1.37 1.252c-.456.259-.594.199.059.088l-2.002-11.832c-1.148.195-2.637.543-3.994 1.315-1.413.805-3.707 2.747-3.707 6.139h12Zm-2.311 4.381c1.386-.231 3.328-.376 5.914-.376v-12c-2.957 0-5.615.16-7.887.539l1.973 11.837Zm5.914-.376c2.799 0 4.476.014 5.156.038l.413-11.993c-.927-.032-2.825-.045-5.569-.045v12Zm5.363.041c.641 0 1.455.033 2.461.108l.897-11.966a45.357 45.357 0 0 0-3.358-.142v12Zm2.461.108c.429.033.756.071.994.109.246.039.341.068.327.064l3.494-11.48c-1.247-.38-2.619-.562-3.918-.659l-.897 11.966Zm1.388.193c.46.134 1.007.321 1.647.573l4.388-11.169a31.337 31.337 0 0 0-2.675-.924l-3.36 11.52Zm1.713.598c.152.058-.128-.015-.486-.418l8.969-7.972c-1.244-1.401-2.771-2.278-4.227-2.83l-4.256 11.22Zm-.37-.292a5.1 5.1 0 0 1 .57.772l10.176-6.36a16.884 16.884 0 0 0-2.008-2.636l-8.738 8.224Zm.576.783c-.069-.111-.01-.066.063.268s.141.868.141 1.654h12c0-2.751-.44-5.754-2.041-8.303l-10.163 6.381Zm.204 1.922c0 1.529-.264 2.428-.508 2.927l10.772 5.288c1.251-2.55 1.736-5.365 1.736-8.215h-12Zm-.528 2.968c-.31.643-.583.859-.726.95l6.443 10.124c2.296-1.462 3.963-3.518 5.095-5.868l-10.812-5.206Zm-2.569 9.229c1.546 2.433 2.619 4.288 3.284 5.618.333.667.514 1.104.6 1.35.121.344-.039.044-.039-.624h12c0-1.347-.359-2.554-.636-3.347-.313-.89-.729-1.818-1.192-2.745-.929-1.857-2.247-4.104-3.888-6.687l-10.129 6.435Zm3.845 6.344c0-.889.237-1.759.669-2.511a4.66 4.66 0 0 1 1.231-1.407c.581-.433.953-.463.605-.377-.634.158-2.086.332-4.694.332v12c2.852 0 5.494-.165 7.59-.687 1.017-.253 2.412-.707 3.676-1.65 1.431-1.068 2.923-2.99 2.923-5.7h-12ZM198.889 168c-.713 0-1.247-.016-1.627-.04-.427-.027-.484-.054-.328-.019l-2.659 11.702c1.344.305 3.062.357 4.614.357v-12Zm-1.955-.059c.338.077.964.278 1.629.801a4.739 4.739 0 0 1 1.536 2.139l-11.316 3.994c1.028 2.913 3.452 4.304 5.492 4.768l2.659-11.702Zm3.229 3.131-2.702-8.563-11.444 3.61 2.702 8.564 11.444-3.611Zm-8.072-12.748-.707-.041-.704 11.979.706.042.705-11.98Zm-7.059 5.948v8.522h12v-8.522h-12Zm6-.402h1.081v-12h-1.081v12Zm1.081 0c2.64 0 5.24-1.183 6.852-3.685 1.32-2.049 1.559-4.357 1.559-6.056h-12c0 .32-.028.426-.017.377.01-.045.084-.377.371-.821a4.032 4.032 0 0 1 1.533-1.378 3.763 3.763 0 0 1 1.702-.437v12Zm8.411-9.741c0-1.629-.215-4.358-2.076-6.567l-9.179 7.73c-.54-.642-.701-1.212-.737-1.36-.039-.157-.008-.123-.008.197h12Zm-1.956-6.42c-1.288-1.631-3.384-3.072-6.164-3.072v12a4.397 4.397 0 0 1-2.083-.529 3.82 3.82 0 0 1-1.172-.963l9.419-7.436Zm-6.164-3.072h-1.372v12h1.372v-12Zm-7.372 6v7.233h12v-7.233h-12Zm30.547 22.074c0-2.578 1.594-4.054 2.214-4.524.64-.485 1.178-.657 1.217-.67.146-.05-.024.02-.776.117l1.536 11.901c.966-.125 2.084-.312 3.09-.652a7.698 7.698 0 0 0 2.183-1.133c.835-.633 2.536-2.28 2.536-5.039h-12Zm2.643-5.076a32.989 32.989 0 0 1-4.292.282v12c1.954 0 3.905-.128 5.852-.384l-1.56-11.898Zm-4.292.282c-.753 0-1.249-.023-1.542-.049-.145-.013-.176-.021-.127-.012.028.005.101.02.208.049.102.028.279.081.503.173l-4.569 11.096c1.129.465 2.291.59 2.912.646a29.81 29.81 0 0 0 2.615.097v-12Zm-.958.161a4.77 4.77 0 0 1 1.933 1.505 5.142 5.142 0 0 1 1.076 3.128h-12c0 1.424.433 2.921 1.429 4.209.935 1.21 2.09 1.882 2.993 2.254l4.569-11.096Zm3.009 4.633v-25.483h-12v25.483h12Zm0-25.483c0 2.065-1.184 3.268-1.61 3.618-.378.311-.531.294-.044.12l-4.036-11.3c-1.065.38-2.382.959-3.537 1.907-1.202.988-2.773 2.87-2.773 5.655h12Zm-1.686 3.75c.816-.287 1.938-.493 3.46-.493v-12c-2.581 0-5.089.347-7.433 1.169l3.973 11.324Zm3.46-.493c.508 0 .563.056.344-.01-.223-.068-1.104-.384-1.86-1.393l9.6-7.2c-1.255-1.673-2.933-2.488-4.251-2.889-1.313-.399-2.651-.508-3.833-.508v12Zm-1.482-1.358c-.04-.052-.694-.893-.694-2.356h12c0-2.239-1.014-3.939-1.774-4.933l-9.532 7.289Zm-.694-2.356v6.859h12v-6.859h-12Zm6 12.859h.333v-12h-.333v12Zm6.333-6a5.906 5.906 0 0 1-.108 1.117 4.444 4.444 0 0 1-.074.323c-.026.098-.042.146-.03.109.02-.063.07-.211.166-.476.187-.517.481-1.299.893-2.369l-11.2-4.308a147.99 147.99 0 0 0-.978 2.598c-.112.31-.218.611-.302.871-.04.124-.095.301-.147.496a6.78 6.78 0 0 0-.103.447c-.022.111-.117.585-.117 1.192h12Zm.841-1.281c.759-1.956 1.318-3.164 1.678-3.802.194-.344.193-.273-.024-.038a4.389 4.389 0 0 1-.945.766 5.452 5.452 0 0 1-2.853.794v-12c-2.87 0-4.607 1.852-5.04 2.323-.684.745-1.207 1.58-1.588 2.255-.789 1.399-1.595 3.246-2.416 5.364l11.188 4.338Zm-2.144-2.28c.388 0 1.57.158 3.878.91l3.718-11.409c-2.625-.856-5.267-1.501-7.596-1.501v12Zm3.879.911c.503.163.801.355.994.523l7.881-9.049c-1.525-1.328-3.278-2.272-5.159-2.885l-3.716 11.411Zm1.079.596c-.027-.022-.251-.215-.47-.626a3.347 3.347 0 0 1-.386-1.56h12c0-3.113-1.604-5.474-3.433-7.008l-7.711 9.194Zm-.856-2.186c0-.43.053-.769.098-.984.046-.221.097-.382.128-.471.058-.167.091-.214.037-.11-.048.091-.139.25-.289.488-.149.234-.339.518-.578.856l9.799 6.927c.64-.906 1.233-1.818 1.69-2.688.316-.602 1.115-2.15 1.115-4.018h-12Zm-.616-.204c-.945 1.347-2.491 3.298-4.722 5.91l9.124 7.794c2.314-2.709 4.149-4.999 5.421-6.811l-9.823-6.893Zm-4.51 13.939c.512.539 1.166 1.234 1.964 2.087l8.763-8.198a412.568 412.568 0 0 0-2.027-2.154l-8.7 8.265Zm1.964 2.087c.611.654 1.544 1.768 2.838 3.44l9.489-7.346c-1.367-1.765-2.568-3.227-3.564-4.292l-8.763 8.198Zm2.905 3.525c.276.344.494.633.661.871.169.241.267.401.316.488.055.096.015.043-.049-.137a3.424 3.424 0 0 1-.127-.47 4.527 4.527 0 0 1-.087-.893h12c0-1.966-.822-3.574-1.281-4.389-.564-1.001-1.295-2.011-2.078-2.985l-9.355 7.515Zm.714-.141c0-1.468.649-2.345.759-2.488.136-.176.119-.098-.296.211l7.167 9.625c.888-.661 1.848-1.49 2.635-2.512.761-.988 1.735-2.648 1.735-4.836h-12Zm.53-2.326a14.436 14.436 0 0 1-2.941 1.648l4.601 11.083a26.443 26.443 0 0 0 5.373-3.008l-7.033-9.723Zm-2.851 1.611c-.594.236-1.002.368-1.254.435-.121.032-.171.039-.159.038.006-.001.129-.021.339-.021v12c1.949 0 3.961-.688 5.494-1.295l-4.42-11.157Zm-1.074.452c1.386 0 2.366.51 2.81.79.459.288.71.559.761.613.095.104-.025-.008-.353-.566l-10.343 6.085c.503.855 1.125 1.803 1.871 2.614.376.408.931.943 1.67 1.408.725.457 1.963 1.056 3.584 1.056v-12Zm3.287.957c-.625-1.119-1.5-3-2.636-5.787l-11.112 4.531c1.192 2.923 2.284 5.338 3.267 7.101l10.481-5.845Zm-12.791-7.374-1.289 1.538 9.198 7.706 1.289-1.538-9.198-7.706Zm-2.69 5.391v5.404h12v-5.404h-12Z" fill="#09758b" mask="url(#a)"/></svg>