<?xml version="1.0" standalone="no"?>
<!DOCTYPE svg PUBLIC "-//W3C//DTD SVG 20010904//EN"
 "http://www.w3.org/TR/2001/REC-SVG-20010904/DTD/svg10.dtd">
<svg version="1.0" xmlns="http://www.w3.org/2000/svg"
 width="305.000000pt" height="305.000000pt" viewBox="0 0 305.000000 305.000000"
 preserveAspectRatio="xMidYMid meet">
<metadata>
Created by potrace 1.14, written by Peter Selinger 2001-2017
</metadata>
<g transform="translate(0.000000,305.000000) scale(0.100000,-0.100000)"
fill="#000000" stroke="none">
<path d="M1414 2653 c-60 -103 -121 -207 -135 -232 -27 -47 -98 -169 -494
-846 -126 -214 -234 -401 -242 -415 -7 -14 -132 -227 -277 -475 -145 -247
-262 -453 -259 -457 5 -9 3027 -11 3036 -2 3 3 -24 56 -60 117 -101 171 -512
874 -551 942 -19 33 -43 74 -53 90 -10 17 -27 46 -38 65 -10 19 -85 147 -165
284 -80 136 -146 250 -146 251 0 2 -29 51 -65 110 -36 59 -65 109 -65 111 0 1
-34 60 -75 129 -41 70 -75 128 -75 130 0 1 -29 51 -65 110 -36 59 -65 108 -65
110 0 2 -22 40 -48 84 l-48 80 -110 -186z m266 -328 c329 -563 440 -754 440
-759 0 -5 -65 -90 -191 -250 -24 -30 -47 -55 -51 -55 -3 -1 -81 95 -173 212
-91 116 -174 215 -183 218 -11 4 -26 -5 -45 -30 -15 -20 -39 -50 -52 -66 -101
-129 -163 -209 -203 -262 -26 -34 -52 -64 -59 -67 -10 -4 -66 62 -195 231
l-48 62 60 101 c33 56 60 104 60 106 0 3 9 17 19 32 10 15 119 199 241 410
l223 383 20 -33 c11 -18 73 -123 137 -233z"/>
</g>
</svg>
